<?xml version="1.0" standalone="no"?>
<!DOCTYPE svg PUBLIC "-//W3C//DTD SVG 1.1//EN" "http://www.w3.org/Graphics/SVG/1.1/DTD/svg11.dtd" >
<svg xmlns="http://www.w3.org/2000/svg" xmlns:xlink="http://www.w3.org/1999/xlink" version="1.1">
<metadata></metadata>
<defs>
<font id="zen_tokyo_zooregular" horiz-adv-x="360" >
<font-face units-per-em="2048" ascent="1638" descent="-410" />
<missing-glyph horiz-adv-x="573" />
<glyph horiz-adv-x="0" />
<glyph horiz-adv-x="682" />
<glyph unicode="&#xd;" horiz-adv-x="1228" />
<glyph unicode=" "  horiz-adv-x="573" />
<glyph unicode="&#x09;" horiz-adv-x="573" />
<glyph unicode="&#xa0;" horiz-adv-x="573" />
<glyph unicode="!" horiz-adv-x="401" d="M102 0v170h62v-170h-62zM102 225v598h62v-598h-62zM238 0v170h61v-170h-61zM238 225v598h61v-598h-61z" />
<glyph unicode="&#x22;" horiz-adv-x="618" d="M51 555v268h62v-268h-62zM186 555v268h62v-268h-62zM371 555v268h61v-268h-61zM506 555v268h61v-268h-61z" />
<glyph unicode="#" horiz-adv-x="1050" d="M102 168v61h408l-8 -61h-400zM102 303v62h428l-10 -62h-418zM164 496v61h63l-10 -61h-53zM164 631v61h82l-8 -61h-74zM195 -27l20 144h61l-20 -144h-61zM264 444l55 379h62l-55 -379h-62zM330 -27l20 144h62l-21 -144h-61zM399 444l56 379h61l-55 -379h-62zM520 496 l10 61h418v-61h-428zM526 -27l70 471h61l-69 -471h-62zM541 631l8 61h399v-61h-407zM639 743l12 80h62l-13 -80h-61zM662 -27l69 471h62l-70 -471h-61zM774 743l12 80h62l-12 -80h-62zM803 168l10 61h74v-61h-84zM823 303l11 62h53v-62h-64z" />
<glyph unicode="$" horiz-adv-x="776" d="M61 207l62 8q8 -57 50 -100t112 -62v-63q-94 23 -153.5 79t-70.5 138zM66 588q0 88 61 153.5t158 89.5v-63q-70 -20 -114 -68.5t-44 -111.5q0 -76 49 -117t139 -68l113 -32q152 -45 152 -135q0 -39 -22.5 -65t-63.5 -40v64q25 12 24 38q0 25 -26.5 44.5t-96.5 39.5 l-104 31q-96 29 -160.5 86.5t-64.5 153.5zM195 225l61 8q0 -23 29 -38v-64q-80 29 -90 94zM201 588q0 35 22.5 62.5t61.5 41.5v-67q-23 -16 -23 -37q0 -18 22.5 -31.5t98.5 -36.5l109 -31q106 -31 164.5 -90t58.5 -155q0 -98 -60.5 -164t-160.5 -88v63q74 20 116.5 68.5 t42.5 120.5q0 76 -47 123t-137 69l-125 33q-70 18 -106.5 46t-36.5 73zM358 -96v360l62 -12v-348h-62zM358 582v342h62v-357zM494 623v65q33 -14 54 -35.5t23 -50.5l-59 -8q-4 16 -18 29zM494 768v63q90 -23 147 -80t66 -135l-62 -6q-6 57 -46 98.5t-105 59.5z" />
<glyph unicode="%" horiz-adv-x="1009" d="M51 647q0 86 59.5 146.5t147.5 60.5q90 0 148.5 -60.5t58.5 -146.5t-58.5 -147.5t-148.5 -61.5q-88 0 -147.5 61.5t-59.5 147.5zM113 649q0 -61 43 -104t104 -43q59 0 101 43t42 104q0 59 -42 101.5t-101 42.5q-61 0 -104 -42t-43 -102zM117 0l565 823h66l-566 -823h-65z M178 651q0 33 24.5 56.5t57.5 23.5t56.5 -23.5t23.5 -56.5t-23.5 -57.5t-56.5 -24.5t-57.5 24.5t-24.5 57.5zM231 651q0 -26 27 -26t27 26q0 27 -27 27t-27 -27zM260 0l565 823h66l-565 -823h-66zM545 193q0 86 59.5 146t147.5 60q90 0 148 -60t58 -146t-58 -147.5 t-148 -61.5q-88 0 -147.5 61t-59.5 148zM606 195q0 -61 43.5 -104.5t104.5 -43.5q59 0 101 43t42 105q0 59 -42 101t-101 42q-61 0 -104.5 -42t-43.5 -101zM672 197q0 33 24.5 56t57.5 23t56.5 -23.5t23.5 -55.5q0 -33 -23.5 -57.5t-56.5 -24.5t-57.5 24.5t-24.5 57.5z M725 197q0 -27 27 -27t26 27q0 27 -26 26q-27 0 -27 -26z" />
<glyph unicode="&#x26;" horiz-adv-x="997" d="M106 188q0 121 130 195l36 -49q-37 -20 -69.5 -60.5t-32.5 -85.5q0 -61 46 -108t136 -47q29 0 68 10t57 18l39 -53q-31 -14 -80 -26.5t-84 -12.5q-119 0 -182.5 62.5t-63.5 156.5zM242 606q0 102 62.5 171t180.5 69q119 0 181.5 -68.5t62.5 -171.5q0 -72 -25.5 -125 t-66.5 -84l-37 47q68 55 68 162q0 78 -44 128t-139 50q-94 0 -138 -50t-44 -128q0 -39 14.5 -86t44.5 -88l340 -463h-77l-320 439q-31 43 -47 97t-16 101zM244 188q0 23 19.5 47.5t51.5 38.5l35 -51q-12 -6 -27.5 -17t-15.5 -22q0 -20 37 -20q18 0 30.5 5t16.5 7l41 -55 q-20 -8 -42.5 -13.5t-45.5 -5.5q-47 0 -73.5 27t-26.5 59zM369 606q0 51 32.5 82t83.5 31q53 0 85 -31t32 -82q0 -67 -39 -100l-39 51q16 14 17 49q0 23 -13.5 37t-42.5 14t-42 -14t-13 -37q0 -41 49 -110l385 -527h-78l-360 494q-57 80 -57 143zM696 330q31 25 31 45l66 -2 q-7 -53 -60 -94zM776 223q90 68 92 150h68q4 -51 -31 -105.5t-92 -95.5z" />
<glyph unicode="'" horiz-adv-x="299" d="M51 555v268h62v-268h-62zM186 555v268h62v-268h-62z" />
<glyph unicode="(" horiz-adv-x="430" d="M61 414q0 109 30 228.5t93 240.5h66q-63 -115 -95 -237t-32 -232q0 -111 31.5 -233t95.5 -236h-66q-63 121 -93 240.5t-30 228.5zM197 414q0 109 29.5 228.5t92.5 240.5h66q-63 -115 -95 -237t-32 -232q0 -111 32 -233t95 -236h-66q-63 121 -92.5 240.5t-29.5 228.5z" />
<glyph unicode=")" horiz-adv-x="430" d="M45 -55q63 115 95 236.5t32 232.5t-31.5 232.5t-95.5 236.5h66q63 -121 92.5 -241t29.5 -228q0 -109 -29.5 -228.5t-92.5 -240.5h-66zM180 -55q63 115 95 236.5t32 232.5t-31.5 232.5t-95.5 236.5h66q63 -121 93 -241t30 -228q0 -109 -30 -228.5t-93 -240.5h-66z" />
<glyph unicode="*" horiz-adv-x="733" d="M102 614l15 43l131 -41l-12 -43zM129 707l14 43l133 -39l-12 -43zM162 438l82 113l37 -27l-82 -112zM236 385l81 113l37 -27l-82 -113zM295 721v137h45v-137h-45zM383 471l37 27l84 -113l-37 -27zM393 721v137h45v-137h-45zM459 524l37 27l86 -111l-37 -26zM459 709 l129 45l14 -43l-131 -45zM487 614l129 45l15 -43l-131 -45z" />
<glyph unicode="+" horiz-adv-x="806" d="M82 309v62h149v-62h-149zM82 444v62h149v-62h-149zM305 106v603h62v-603h-62zM440 106v603h62v-603h-62zM575 309v62h150v-62h-150zM575 444v62h150v-62h-150z" />
<glyph unicode="," horiz-adv-x="442" d="M82 -86l76 254h63l-76 -254h-63zM223 -86l74 254h63l-73 -254h-64z" />
<glyph unicode="-" horiz-adv-x="667" d="M102 313v62h463v-62h-463zM102 449v61h463v-61h-463z" />
<glyph unicode="." d="M82 0v168h61v-168h-61zM217 0v168h62v-168h-62z" />
<glyph unicode="/" horiz-adv-x="610" d="M61 0l279 823h66l-279 -823h-66zM205 0l278 823h66l-279 -823h-65z" />
<glyph unicode="0" horiz-adv-x="626" d="M61 217v389q0 102 67 175t185 73q119 0 185.5 -72.5t66.5 -175.5v-389q0 -102 -66.5 -175t-185.5 -73t-185.5 73t-66.5 175zM123 217q0 -76 48 -131t142 -55t142.5 55t48.5 131v389q0 78 -48 132.5t-143 54.5q-94 0 -142 -54.5t-48 -132.5v-389zM197 217v389 q0 51 32.5 82t83.5 31q53 0 85 -31t32 -82v-389q0 -51 -31.5 -82t-85.5 -31q-51 0 -83.5 31t-32.5 82zM258 217q0 -20 13.5 -35.5t41.5 -15.5q29 0 42.5 15.5t13.5 35.5v389q0 23 -13.5 37t-42.5 14t-42 -14t-13 -37v-389z" />
<glyph unicode="1" horiz-adv-x="626" d="M102 625v61h152v-61h-152zM102 760v61h152v-61h-152zM328 0v823h61v-823h-61zM463 0v823h61v-823h-61z" />
<glyph unicode="2" horiz-adv-x="612" d="M61 0v68h478v-68h-478zM61 129v68h478v-68h-478zM63 272l228 267q25 29 44 47t19 39q0 33 -43 32q-27 0 -35 -12t-8 -37h-61q0 111 106 111q47 0 75 -24.5t28 -67.5q0 -35 -22.5 -60.5t-51.5 -60.5l-201 -234h-78zM72 602q0 113 64.5 182.5t174.5 69.5q104 0 172 -63.5 t68 -163.5q0 -55 -33 -111.5t-69 -97.5l-130 -146h-81l147 164q47 53 75.5 97.5t28.5 89.5q0 78 -47 124t-131 46q-88 0 -133 -50.5t-45 -140.5h-61z" />
<glyph unicode="3" horiz-adv-x="663" d="M61 233h62q0 -82 59.5 -143t149.5 -61q94 0 152.5 61.5t58.5 142.5q0 88 -56.5 146.5t-154.5 58.5v62q139 0 204.5 -76t65.5 -191q0 -113 -72.5 -188.5t-197.5 -75.5q-119 0 -195 76t-76 188zM61 588q0 113 76 188.5t195 75.5q125 0 197.5 -75t72.5 -177q0 -51 -20 -104 l-52 43q4 12 8.5 28.5t4.5 32.5q0 78 -55.5 134.5t-155.5 56.5q-94 0 -151.5 -56.5t-57.5 -134.5zM215 233h61q0 -18 14.5 -33.5t41.5 -15.5q51 0 55 49q0 49 -55 50v61q53 0 85 -31.5t32 -79.5q0 -47 -32 -78.5t-85 -31.5q-51 0 -84 31.5t-33 78.5zM217 588q0 45 32 76.5 t83 31.5q53 0 85 -30.5t32 -71.5q0 -10 -1.5 -18.5t-3.5 -16.5l-59 14q4 8 4 21q0 35 -55 35q-27 0 -40 -12.5t-13 -28.5h-64z" />
<glyph unicode="4" horiz-adv-x="694" d="M61 111v61h277v-61h-277zM61 258v61h277v-61h-277zM96 403l215 439h68l-213 -439h-70zM260 403l215 439h68l-213 -439h-70zM424 0v422h61v-422h-61zM571 0v422h62v-422h-62z" />
<glyph unicode="5" horiz-adv-x="743" d="M137 215h62q0 -76 48 -131t142 -55t142.5 55t48.5 131q0 70 -39 122t-115 62v62q102 -12 158.5 -82t56.5 -164q0 -102 -66.5 -175t-185.5 -73t-185.5 73t-66.5 175zM156 289v262h61v-262h-61zM156 627v61h469v-61h-469zM156 762v61h469v-61h-469zM272 215h62 q0 -20 13 -35.5t42 -15.5t42 15.5t13 35.5q0 29 -18 41v66q80 -20 80 -107q0 -51 -32 -82t-85 -31q-51 0 -84 31t-33 82zM291 289v262h61v-262h-61z" />
<glyph unicode="6" horiz-adv-x="626" d="M61 219v389q0 102 68 174t184 72q119 0 185.5 -72.5t66.5 -175.5h-61q0 78 -48 132.5t-143 54.5q-94 0 -142 -54.5t-48 -132.5v-387q0 -76 48 -131t142 -55t142.5 55t48.5 131t-47 130t-138 57v61q115 -2 180.5 -73.5t65.5 -174.5q0 -102 -66.5 -175t-185.5 -73 t-185.5 73t-66.5 175zM197 219v389q2 49 33.5 80t82.5 31q53 0 85 -31t32 -82h-61q0 23 -13.5 37t-42.5 14t-42 -14t-13 -37v-387q0 -20 13.5 -35.5t41.5 -15.5q29 0 42.5 15.5t13.5 35.5t-11.5 34.5t-38.5 16.5v62q49 -2 80 -33t31 -80q0 -51 -31.5 -82t-85.5 -31 q-51 0 -83.5 31t-32.5 82z" />
<glyph unicode="7" horiz-adv-x="610" d="M76 627v61h475v-61h-475zM76 762v61h475v-61h-475zM166 12l153 543h64l-154 -543h-63zM305 12l154 543h63l-153 -543h-64z" />
<glyph unicode="8" horiz-adv-x="626" d="M61 217q0 39 4.5 67.5t26.5 61.5l55 -45q-8 -12 -17 -32.5t-7 -51.5q0 -76 48 -131t142 -55t142.5 55t48.5 131q0 61 -45 104.5t-99 84.5l-45 34q-20 16 -47.5 40t-49 55.5t-21.5 70.5q0 51 32.5 82t83.5 31q53 0 85 -31t32 -82q0 -31 -5 -45t-15 -24l-48 36q6 10 7 33 q0 23 -13.5 37t-42.5 14t-42 -14t-13 -37q0 -37 33 -64.5t61 -49.5l54 -43q45 -37 80.5 -66t57 -66.5t21.5 -99.5q0 -102 -66.5 -175t-185.5 -73t-185.5 73t-66.5 175zM61 606q0 102 67 175t185 73q119 0 185.5 -72.5t66.5 -175.5q0 -39 -7 -75.5t-42 -75.5l-51 43 q16 16 27.5 45.5t11.5 62.5q0 78 -48 132.5t-143 54.5q-94 0 -142 -54.5t-48 -132.5q0 -117 98 -188l60 -43q55 -39 102 -75t47 -83q0 -51 -31.5 -82t-85.5 -31q-51 0 -83.5 31t-32.5 82q0 33 10 45l51 -35v-10q0 -20 13.5 -35.5t41.5 -15.5q29 0 42.5 15.5t13.5 35.5 q0 23 -46.5 54.5t-91.5 62.5l-47 33q-68 47 -95.5 102t-27.5 137z" />
<glyph unicode="9" horiz-adv-x="626" d="M61 217h62q0 -76 48 -131t142 -55t142.5 55t48.5 131v387q0 78 -48 132.5t-143 54.5q-94 0 -142 -54.5t-48 -132.5q0 -76 47 -130t137 -56v-62q-115 2 -180.5 75t-65.5 173q0 102 67 175t185 73q119 0 185.5 -72.5t66.5 -175.5v-389q-2 -102 -68.5 -174t-183.5 -72 q-119 0 -185.5 73t-66.5 175zM197 217h61q0 -20 13.5 -35.5t41.5 -15.5q29 0 42.5 15.5t13.5 35.5v387q0 23 -13.5 37t-42.5 14t-42 -14t-13 -37q0 -20 11.5 -34.5t37.5 -16.5v-61q-49 2 -79.5 32.5t-30.5 79.5q0 51 32.5 82t83.5 31q53 0 85 -31t32 -82v-389 q-2 -51 -33.5 -81t-83.5 -30q-51 0 -83.5 31t-32.5 82z" />
<glyph unicode=":" d="M82 0v168h61v-168h-61zM82 311v168h61v-168h-61zM217 0v168h62v-168h-62zM217 311v168h62v-168h-62z" />
<glyph unicode=";" horiz-adv-x="444" d="M82 -86l76 254h63l-76 -254h-63zM166 315v168h61v-168h-61zM223 -86l74 254h63l-73 -254h-64zM301 315v168h61v-168h-61z" />
<glyph unicode="&#x3c;" horiz-adv-x="921" d="M82 408l63 34l695 -401v-72zM221 487l64 35l555 -321v-72zM356 565l484 281v-72l-422 -246zM494 487l346 201v-72l-285 -165z" />
<glyph unicode="=" horiz-adv-x="704" d="M82 96v62h541v-62h-541zM82 217v62h541v-62h-541zM82 434v62h541v-62h-541zM82 555v61h541v-61h-541z" />
<glyph unicode="&#x3e;" horiz-adv-x="921" d="M82 -10v71l422 246l61 -37zM82 147v72l285 166l61 -37zM82 635v72l618 -359l-63 -35zM82 795v71l758 -438l-64 -35z" />
<glyph unicode="?" horiz-adv-x="708" d="M102 606q0 102 67 175t185 73q119 0 185.5 -72.5t66.5 -175.5q0 -63 -15.5 -114.5t-60.5 -90.5l-43 -36q-33 -29 -33.5 -74t-0.5 -103h-64q0 55 3 117t52 105l50 43q39 35 45 84t6 69q0 78 -48 132.5t-143 54.5q-94 0 -142 -54.5t-48 -132.5h-62zM238 606q0 51 32.5 82 t83.5 31q53 0 85 -31t32 -82t-16.5 -76.5t-44.5 -54.5l-41 -39q-31 -29 -41.5 -77t-10.5 -95v-76h-63v85.5t13.5 108.5t56.5 97l49 47q25 25 31 45.5t6 34.5q0 23 -13.5 37t-42.5 14t-42 -14t-13 -37h-61zM256 0v115h61v-115h-61zM391 0v115h62v-115h-62z" />
<glyph unicode="@" horiz-adv-x="1003" d="M61 414q0 125 57.5 224t158 156.5t227.5 57.5t225 -54.5t155.5 -148.5t57.5 -217q0 -125 -52 -195.5t-142 -70.5q-51 0 -91.5 19.5t-60.5 52.5q-23 -16 -48.5 -27.5t-51.5 -11.5q-90 0 -151.5 62.5t-61.5 152.5t61.5 149.5t151.5 59.5q25 0 45 -8.5t37 -18.5v22h43v-315 q0 -39 36.5 -65.5t85.5 -26.5q76 0 114 57.5t38 163.5q0 113 -49 196t-137 130t-205 47q-113 0 -203 -51.5t-141 -139.5t-51 -200q0 -113 51 -202t141 -141.5t203 -52.5q119 0 213 60l22 -41q-51 -31 -110 -48.5t-125 -17.5q-127 0 -227.5 57.5t-158 158t-57.5 227.5z M160 414q0 96 45 173t123 122t176 45t175 -42t122 -116t45 -166q0 -82 -24.5 -132t-80.5 -50q-86 0 -86 94v276h43v-276q0 -47 43 -47q35 0 45.5 36t10.5 99q0 123 -80 200t-213 77q-84 0 -151.5 -38t-105.5 -104.5t-38 -150.5t39 -150.5t105.5 -104.5t150.5 -38 q86 0 162 45l22 -43q-92 -53 -184 -53q-96 0 -175 45t-124 123.5t-45 175.5zM328 414q0 -70 48 -119t120 -49q49 0 86 22q-4 16 -4 35v16q-35 -34 -86 -34q-53 0 -91.5 37.5t-38.5 91.5q0 51 38 89t92 38q27 0 48 -10.5t38 -24.5v47q-16 10 -38 17.5t-44 7.5 q-72 0 -120 -46.5t-48 -117.5zM408 414q0 -37 22.5 -60.5t61.5 -23.5q57 0 86 32v91q-33 43 -86 43q-37 0 -60.5 -23.5t-23.5 -58.5z" />
<glyph unicode="A" horiz-adv-x="1634" d="M41 0l596 1647h63l-594 -1647h-65zM184 0l594 1647h68l-596 -1647h-66zM328 0l596 1647h65l-596 -1647h-65zM563 272l23 62h467l22 -62h-512zM612 408l23 61h369l22 -61h-414zM662 545l22 61h270l23 -61h-315zM852 1077l33 92l422 -1169h-66zM924 1276l30 94l496 -1370 h-66zM993 1477l33 92l567 -1569h-65z" />
<glyph unicode="B" horiz-adv-x="1605" d="M102 0v1647h62v-1647h-62zM238 0v1647h61v-1647h-61zM373 0v1647h61v-1647h-61zM502 0v61h497q150 0 257.5 58.5t166 160t58.5 230.5q0 80 -19.5 152.5t-60.5 128.5q12 10 23.5 21t19.5 26q98 -129 98 -328q0 -145 -66.5 -261t-188.5 -182.5t-288 -66.5h-497zM502 135v62 h497q170 0 258.5 88t88.5 225q0 53 -12.5 103.5t-35.5 88.5q16 8 28.5 18.5t21.5 18.5q29 -45 44 -104.5t15 -124.5q0 -162 -106.5 -268.5t-301.5 -106.5h-497zM502 270v62h497q113 0 162 49t49 129q0 76 -39 131q14 4 28.5 11t29.5 16q43 -70 43 -158q0 -106 -66.5 -173 t-206.5 -67h-497zM508 688v62h481q117 0 212 51t151.5 145t56.5 221t-56.5 221.5t-151.5 145.5t-212 51h-481v62h481q133 0 242.5 -60.5t174 -168t64.5 -251.5q0 -143 -64.5 -250.5t-174 -168t-242.5 -60.5h-481zM508 823v62h481q119 0 202 74.5t83 207.5t-83 208t-202 75 h-481v61h481q96 0 174 -42t125 -118.5t47 -183.5q0 -106 -47 -183t-125 -119t-174 -42h-481zM508 958v62h481q61 0 105.5 36t44.5 111q0 78 -44 113t-106 35h-481v61h481q88 0 149.5 -53t61.5 -156q0 -102 -61.5 -155.5t-149.5 -53.5h-481z" />
<glyph unicode="C" horiz-adv-x="1589" d="M61 823q0 178 61.5 333t174.5 271.5t269.5 183t348.5 66.5q188 0 344 -64.5t269 -178.5l-43 -43q-104 104 -248.5 164.5t-321.5 60.5q-180 0 -325.5 -61.5t-249.5 -170t-160.5 -253t-56.5 -308.5t56.5 -308t160.5 -252.5t249.5 -170t325.5 -61.5q176 0 320.5 60.5 t249.5 164.5l43 -43q-113 -113 -269 -178.5t-344 -65.5q-193 0 -349 66.5t-269 183.5t-174.5 271.5t-61.5 332.5zM197 823q0 150 50 280t145 229.5t227.5 154.5t295.5 55q162 0 292 -54t225 -151l-46 -45q-84 88 -203.5 137.5t-267.5 49.5q-201 0 -349 -88t-228 -236.5 t-80 -331.5q0 -180 80 -329.5t228.5 -237.5t348.5 -88q147 0 267.5 49t203.5 137l46 -45q-94 -94 -224.5 -149.5t-292.5 -55.5q-164 0 -296 56.5t-227 155t-145 228.5t-50 279zM332 823q0 162 69.5 294t200.5 211t313 79q133 0 240 -44t180 -122l-43 -43q-68 68 -162 106.5 t-215 38.5q-164 0 -281.5 -70.5t-179 -188t-61.5 -261.5q0 -143 61.5 -261t179.5 -188.5t281 -70.5q121 0 215.5 39t161.5 107l43 -43q-74 -76 -180.5 -121t-239.5 -45q-182 0 -313 78.5t-200.5 212t-69.5 292.5z" />
<glyph unicode="D" horiz-adv-x="1650" d="M102 0v1647h62v-1647h-62zM238 0v1647h61v-1647h-61zM373 0v1647h61v-1647h-61zM508 0v61h225q174 0 318.5 56.5t251 159t165 241.5t58.5 305t-58.5 305.5t-165 242t-251 158.5t-318.5 56h-225v62h227q186 0 342 -61.5t270.5 -172t178 -260t63.5 -330.5 q0 -180 -63.5 -330.5t-178 -261t-270 -171t-342.5 -60.5h-227zM508 135v62h225q195 0 342.5 79.5t231.5 222t84 324.5q0 184 -84 325.5t-231.5 221.5t-342.5 80h-225v61h227q211 0 373 -89t254 -243.5t92 -355.5t-92 -356.5t-254 -243.5t-373 -88h-227zM508 270v62h225 q156 0 272.5 61.5t182 173t65.5 256.5q0 147 -65.5 258t-182 172.5t-272.5 61.5h-225v61h227q172 0 303 -70.5t205 -194.5t74 -288t-74 -288.5t-205 -194.5t-303 -70h-227z" />
<glyph unicode="E" horiz-adv-x="1386" d="M102 0v1647h62v-1647h-62zM238 0v1647h61v-1647h-61zM373 0v1647h61v-1647h-61zM508 0v61h817v-61h-817zM508 135v62h817v-62h-817zM508 270v62h817v-62h-817zM508 657v62h700v-62h-700zM508 793v61h700v-61h-700zM508 928v61h700v-61h-700zM508 1315v61h817v-61h-817z M508 1450v61h817v-61h-817zM508 1585v62h817v-62h-817z" />
<glyph unicode="F" horiz-adv-x="1386" d="M102 0v1647h62v-1647h-62zM238 0v1647h61v-1647h-61zM373 0v1647h61v-1647h-61zM508 657v62h700v-62h-700zM508 793v61h700v-61h-700zM508 928v61h700v-61h-700zM508 1315v61h817v-61h-817zM508 1450v61h817v-61h-817zM508 1585v62h817v-62h-817z" />
<glyph unicode="G" horiz-adv-x="1785" d="M61 823q0 178 61.5 333t174.5 271.5t269.5 183t348.5 66.5q246 0 434.5 -107.5t295.5 -285.5l-54 -35q-98 166 -271 266.5t-405 100.5q-180 0 -325.5 -61.5t-249.5 -170t-160.5 -253t-56.5 -308.5t56.5 -308t160.5 -252.5t249.5 -170t325.5 -61.5q176 0 319.5 59.5 t248 165.5t162.5 244h67q-59 -156 -173 -276t-271.5 -187.5t-352.5 -67.5q-193 0 -349 66.5t-269 183.5t-174.5 271.5t-61.5 332.5zM197 823q0 150 50 280t145 229.5t227.5 154.5t295.5 55q211 0 370 -91t247 -241l-53 -34q-82 137 -225.5 220t-338.5 83q-201 0 -349 -88 t-228 -236.5t-80 -331.5q0 -180 80 -329.5t228.5 -237.5t348.5 -88q203 0 352.5 91t227.5 241h70q-82 -176 -250.5 -286t-399.5 -110q-164 0 -296 56.5t-227 155t-145 228.5t-50 279zM332 823q0 162 69.5 294t200.5 211t313 79q176 0 304.5 -75t197.5 -197l-53 -35 q-61 111 -176 177t-273 66q-164 0 -281.5 -70.5t-179 -188t-61.5 -261.5q0 -143 61.5 -261t179.5 -188.5t281 -70.5q141 0 248 54.5t170 142.5h78q-72 -119 -199 -189.5t-297 -70.5q-182 0 -313 78.5t-200.5 212t-69.5 292.5zM920 569v62h804v-62h-804zM920 705v61h804v-61 h-804zM920 840v61h804v-61h-804z" />
<glyph unicode="H" horiz-adv-x="1599" d="M102 0v1647h62v-1647h-62zM238 0v1647h61v-1647h-61zM373 0v1647h61v-1647h-61zM508 657v62h584v-62h-584zM508 793v61h584v-61h-584zM508 928v61h584v-61h-584zM1165 0v1647h62v-1647h-62zM1300 0v1647h62v-1647h-62zM1436 0v1647h61v-1647h-61z" />
<glyph unicode="I" horiz-adv-x="536" d="M102 0v1647h62v-1647h-62zM238 0v1647h61v-1647h-61zM373 0v1647h61v-1647h-61z" />
<glyph unicode="J" horiz-adv-x="1380" d="M45 588v43h61v-43q0 -154 67 -281t190.5 -201.5t298.5 -74.5q174 0 297.5 74.5t190.5 201.5t67 281v1059h61v-1059q0 -170 -75 -311.5t-211.5 -224.5t-329.5 -83q-190 0 -328.5 83t-213.5 224.5t-75 311.5zM180 588v43h62v-43q0 -117 48 -212t142 -152.5t230 -57.5 q137 0 230 57.5t141 152.5t48 212v1059h62v-1059q0 -133 -56.5 -242.5t-163.5 -175.5t-261 -66t-261.5 66t-164 175.5t-56.5 242.5zM315 588v43h62v-43q0 -119 67.5 -203t217.5 -84t217 84t67 203v1059h62v-1059q0 -96 -38 -175t-114.5 -126t-193.5 -47t-194 47t-115 126 t-38 175z" />
<glyph unicode="K" horiz-adv-x="1513" d="M102 0v1647h62v-1647h-62zM238 0v1647h61v-1647h-61zM373 0v1647h61v-1647h-61zM449 805l36 51l662 -856h-78zM530 920l39 53l750 -973h-78zM612 1034l39 51l838 -1085h-78zM696 1149l361 498h76l-398 -549zM782 1038l443 609h75l-479 -660zM868 928l525 719h75 l-561 -770z" />
<glyph unicode="L" horiz-adv-x="1236" d="M102 0v1647h62v-1647h-62zM238 0v1647h61v-1647h-61zM373 0v1647h61v-1647h-61zM508 0v61h700v-61h-700zM508 135v62h700v-62h-700zM508 270v62h700v-62h-700z" />
<glyph unicode="M" horiz-adv-x="1861" d="M102 0v1647h62v-1647h-62zM238 0v1647h61v-1647h-61zM373 0v1647h61v-1647h-61zM508 952v109l455 -649l-37 -54zM508 1188v108l536 -766l-36 -55zM508 1427v105l620 -883l-38 -53zM971 1006l383 555v-109l-346 -502zM1055 887l299 426v-107l-262 -375zM1137 768l217 309 v-106l-180 -256zM1427 0v1647h62v-1647h-62zM1563 0v1647h61v-1647h-61zM1698 0v1647h61v-1647h-61z" />
<glyph unicode="N" horiz-adv-x="1630" d="M102 0v1647h62v-1647h-62zM238 0v1647h61v-1647h-61zM373 0v1647h61v-1647h-61zM508 975v108l614 -882v-109zM508 1212v109l614 -883v-108zM508 1450v109l614 -883v-109zM1196 0v1647h61v-1647h-61zM1331 0v1647h62v-1647h-62zM1466 0v1647h62v-1647h-62z" />
<glyph unicode="O" horiz-adv-x="1830" d="M61 823q0 178 61.5 333t174.5 271.5t269.5 183t348.5 66.5q193 0 349.5 -66.5t269.5 -183t174 -271.5t61 -333t-61 -332.5t-174 -271.5t-269.5 -183.5t-349.5 -66.5t-349 66.5t-269 183.5t-174.5 271.5t-61.5 332.5zM123 823q0 -164 56.5 -308t160.5 -252.5t249.5 -170 t325.5 -61.5t325.5 61.5t250 170t161 252.5t56.5 308t-56.5 308.5t-161 253t-249.5 170t-326 61.5q-180 0 -325.5 -61.5t-249.5 -170t-160.5 -253t-56.5 -308.5zM197 823q0 150 50 280t145 229.5t227.5 154.5t295.5 55q164 0 296 -55t227.5 -154.5t145.5 -229.5t50 -280 t-50 -279.5t-145.5 -228t-227.5 -155t-296 -56.5t-296 56.5t-227 155t-145 228.5t-50 279zM258 823q0 -180 80 -329.5t228.5 -237.5t348.5 -88q203 0 350.5 88t227.5 237.5t80 329.5q0 182 -80 331t-227.5 237t-350.5 88q-201 0 -349 -88t-228 -236.5t-80 -331.5zM332 823 q0 162 69.5 294t200.5 211t313 79t313.5 -79t201 -211t69.5 -294q0 -160 -69.5 -293t-201 -211.5t-313.5 -78.5t-313 78.5t-200.5 212t-69.5 292.5zM393 823q0 -143 61.5 -261t179.5 -188.5t281 -70.5q166 0 283 70.5t178.5 188.5t61.5 261t-61.5 261t-178.5 188.5 t-283 70.5q-164 0 -281.5 -70.5t-179 -188t-61.5 -261.5z" />
<glyph unicode="P" horiz-adv-x="1521" d="M102 0v1647h62v-1647h-62zM238 0v1647h61v-1647h-61zM373 0v1647h61v-1647h-61zM508 688v62h481q117 0 212 51t151.5 145t56.5 221t-56.5 221.5t-151.5 145.5t-212 51h-481v62h481q133 0 242.5 -60.5t174 -168t64.5 -251.5q0 -143 -64.5 -250.5t-174 -168t-242.5 -60.5 h-481zM508 823v62h481q119 0 202 74.5t83 207.5t-83 208t-202 75h-481v61h481q96 0 174 -42t125 -118.5t47 -183.5q0 -106 -47 -183t-125 -119t-174 -42h-481zM508 958v62h481q61 0 105.5 36t44.5 111q0 78 -44 113t-106 35h-481v61h481q88 0 149.5 -53t61.5 -156 q0 -102 -61.5 -155.5t-149.5 -53.5h-481z" />
<glyph unicode="Q" horiz-adv-x="1865" d="M61 823q0 178 61.5 333t174.5 271.5t269.5 183t348.5 66.5q193 0 349.5 -66.5t269.5 -183t174 -271.5t61 -333q0 -109 -23.5 -210t-68.5 -191l-47 47q76 164 76 354q0 164 -56.5 308.5t-161 253t-249.5 170t-324 61.5q-180 0 -325.5 -61.5t-249.5 -170t-160.5 -253 t-56.5 -308.5t56.5 -308t160.5 -252.5t249.5 -170t325.5 -61.5q115 0 215.5 25.5t184.5 72.5l47 -45q-94 -55 -207 -85t-240 -30q-193 0 -349 66.5t-269 183.5t-174.5 271.5t-61.5 332.5zM197 823q0 150 50 280t145 229.5t227.5 154.5t295.5 55q164 0 296 -55t227.5 -154.5 t145.5 -229.5t50 -280q0 -158 -59 -299l-47 49q43 117 43 250q0 182 -80 331t-227.5 237t-348.5 88t-349 -88t-228 -236.5t-80 -331.5q0 -180 80 -329.5t228.5 -237.5t348.5 -88q162 0 299 63l48 -47q-76 -39 -162.5 -59.5t-184.5 -20.5q-164 0 -296 56.5t-227 155 t-145 228.5t-50 279zM332 823q0 162 69.5 294t200.5 211t313 79t312.5 -79t200 -211t69.5 -294q0 -96 -29 -192l-51 53q16 70 17 139q0 143 -61.5 261t-177.5 188.5t-280 70.5t-281.5 -70.5t-179 -188t-61.5 -261.5q0 -143 61.5 -261t179.5 -188.5t281 -70.5q111 0 195 33 l49 -49q-111 -47 -244 -47q-182 0 -313 78.5t-200.5 212t-69.5 292.5zM1047 494l43 43l524 -525l-43 -43zM1143 590l43 43l524 -524l-43 -43zM1237 684l45 45l522 -524l-43 -45z" />
<glyph unicode="R" horiz-adv-x="1525" d="M102 0v1647h62v-1647h-62zM238 0v1647h61v-1647h-61zM373 0v1647h61v-1647h-61zM508 688v62h481q117 0 212 51t151.5 145t56.5 221t-56.5 221.5t-151.5 145.5t-212 51h-481v62h481q133 0 242.5 -60.5t174 -168t64.5 -251.5q0 -143 -64.5 -250.5t-174 -168t-242.5 -60.5 h-481zM508 823v62h481q119 0 202 74.5t83 207.5t-83 208t-202 75h-481v61h481q96 0 174 -42t125 -118.5t47 -183.5q0 -106 -47 -183t-125 -119t-174 -42h-481zM508 958v62h481q61 0 105.5 36t44.5 111q0 78 -44 113t-106 35h-481v61h481q88 0 149.5 -53t61.5 -156 q0 -102 -61.5 -155.5t-149.5 -53.5h-481zM805 616h67l283 -616h-68zM952 618q16 0 34 1.5t34 3.5l285 -623h-68zM1098 633q14 2 29.5 5t29.5 9l297 -647h-68z" />
<glyph unicode="S" horiz-adv-x="1351" d="M63 377l60 16q20 -111 93 -191.5t189.5 -125.5t264.5 -45q168 0 294 56t196.5 155.5t70.5 230.5q0 174 -121 278.5t-340 168.5l-121 34q-150 43 -229.5 94.5t-79.5 137.5q0 100 94 160.5t238 60.5q139 0 229 -57.5t103 -149.5l-60 -16q-4 72 -78.5 117t-193.5 45 q-113 0 -192 -43t-79 -113q0 -63 73 -102t192 -74l116 -35q248 -74 379 -191.5t131 -318.5q0 -145 -78.5 -259t-219 -177.5t-324.5 -63.5q-160 0 -288 50.5t-211 141.5t-108 216zM70 1190q0 141 78.5 250.5t215 173t308.5 63.5q156 0 281.5 -50t208.5 -142t106 -215l-60 -17 q-18 109 -92 191t-188.5 127t-255.5 45q-156 0 -278 -56.5t-192.5 -152.5t-70.5 -221q0 -168 118 -269.5t349 -164.5l127 -35q141 -39 219 -94.5t78 -149.5q0 -104 -96 -168.5t-256 -64.5q-145 0 -239.5 56t-102.5 150l59 17q0 -70 79 -116t204 -46q129 0 210 47t81 121 q0 70 -68 113t-184 75l-127 37q-254 74 -383 186.5t-129 309.5zM195 412l61 16q16 -119 128 -190.5t286 -71.5q127 0 223 39t149.5 108.5t53.5 159.5q0 125 -94.5 197.5t-260.5 117.5l-125 35q-199 55 -305 139.5t-106 223.5q0 104 60.5 184t167 126t239.5 46q125 0 224 -38 t162.5 -107.5t78.5 -161.5l-62 -16q-14 119 -125.5 190.5t-277.5 71.5q-117 0 -209 -38t-144.5 -104.5t-52.5 -152.5q0 -117 93.5 -184.5t271.5 -118.5l123 -35q190 -53 296.5 -140t106.5 -235q0 -109 -61.5 -191.5t-171 -130t-254.5 -47.5q-193 0 -323 85t-152 223z" />
<glyph unicode="T" horiz-adv-x="1312" d="M20 1315v61h1272v-61h-1272zM20 1450v61h1272v-61h-1272zM20 1585v62h1272v-62h-1272zM492 0v1249h61v-1249h-61zM627 0v1249h61v-1249h-61zM762 0v1249h61v-1249h-61z" />
<glyph unicode="U" horiz-adv-x="1437" d="M102 588v1059h62v-1059q0 -154 66.5 -281t190.5 -201.5t298 -74.5t298 74.5t190.5 201.5t66.5 281v1059h61v-1059q0 -170 -74.5 -311.5t-211.5 -224.5t-330 -83q-190 0 -328.5 83t-213.5 224.5t-75 311.5zM238 588v1059h61v-1059q0 -117 48 -212t142.5 -152.5 t229.5 -57.5q137 0 230 57.5t141.5 152.5t48.5 212v1059h61v-1059q0 -133 -56.5 -242.5t-163.5 -175.5t-261 -66t-261.5 66t-163.5 175.5t-56 242.5zM373 588v1059h61v-1059q0 -119 67.5 -203t217.5 -84t217.5 84t67.5 203v1059h61v-1059q0 -96 -38 -175t-114.5 -126 t-193.5 -47t-193.5 47t-114.5 126t-38 175z" />
<glyph unicode="V" horiz-adv-x="1552" d="M41 1647h65l556 -1647h-66zM184 1647h66l555 -1647h-66zM328 1647h65l555 -1647h-65zM817 621l342 1026h66l-375 -1123zM889 410l414 1237h65l-446 -1338zM961 195l485 1452h65l-518 -1547z" />
<glyph unicode="W" horiz-adv-x="1990" d="M41 1647h63l414 -1647h-63zM180 1647h64l413 -1647h-63zM319 1647h64l414 -1647h-64zM666 834l202 813h64l-238 -942zM733 551l275 1096h63l-307 -1221zM803 281l344 1366h63l-374 -1495zM1034 647l33 129l195 -776h-64zM1106 924l31 125l264 -1049h-64zM1174 1194 l32 129l332 -1323h-63zM1405 840l203 807h63l-235 -934zM1477 561l270 1086h63l-303 -1213zM1544 283l342 1364h64l-375 -1491z" />
<glyph unicode="X" horiz-adv-x="1458" d="M41 0l455 780l34 -61l-417 -719h-72zM78 1647h72l954 -1647h-72zM197 0l376 645l35 -61l-340 -584h-71zM236 1647h71l953 -1647h-72zM354 0l297 510l35 -61l-260 -449h-72zM393 1647h72l952 -1647h-71zM772 1260l223 387h72l-260 -445zM848 1126l305 521h72l-340 -582z M926 989l383 658h71l-417 -715z" />
<glyph unicode="Y" horiz-adv-x="1574" d="M23 1647h73l568 -871h-74zM184 1647h74l567 -871h-71zM346 1647h74l569 -871h-76zM623 0v700h61v-700h-61zM758 0v700h61v-700h-61zM829 1155l328 492h74l-363 -549zM893 0v700h61v-700h-61zM913 1030l406 617h74l-443 -676zM993 903l488 744h73l-522 -801z" />
<glyph unicode="Z" horiz-adv-x="1449" d="M20 0l1022 1647h72l-1022 -1647h-72zM168 1315v61h623l-39 -61h-584zM168 1450v61h706l-38 -61h-668zM168 1585v62h788l-36 -62h-752zM178 0l1022 1647h72l-1022 -1647h-72zM336 0l1022 1647h72l-1022 -1647h-72zM483 0l37 61h762v-61h-799zM565 135l39 62h678v-62h-717z M649 270l39 62h594v-62h-633z" />
<glyph unicode="[" horiz-adv-x="655" d="M102 -55v938h62v-938h-62zM238 -55v938h61v-938h-61zM360 6h193v-61h-193v61zM360 80v61h193v-61h-193zM360 686v62h193v-62h-193zM360 821v62h193v-62h-193z" />
<glyph unicode="\" horiz-adv-x="610" d="M61 823h66l279 -823h-66zM205 823h65l279 -823h-66z" />
<glyph unicode="]" horiz-adv-x="655" d="M102 6h193v-61h-193v61zM102 80v61h193v-61h-193zM102 686v62h193v-62h-193zM102 821v62h193v-62h-193zM356 -55v938h62v-938h-62zM492 -55v938h61v-938h-61z" />
<glyph unicode="^" horiz-adv-x="632" d="M102 467l215 367l35 -62l-178 -305h-72zM272 520l35 62l68 -115h-72zM352 653l35 62l143 -248h-71z" />
<glyph unicode="_" horiz-adv-x="966" d="M102 0v61h762v-61h-762zM102 135v62h762v-62h-762z" />
<glyph unicode="`" horiz-adv-x="399" d="M102 1167h72l123 -204h-72z" />
<glyph unicode="a" horiz-adv-x="847" d="M20 0l299 823h66l-299 -823h-66zM164 0l299 823h65l299 -823h-65l-266 733l-39 -106l227 -627h-66l-34 98h-320l-35 -98h-65zM287 160h274l-26 73h-222zM336 295h176l-88 242z" />
<glyph unicode="b" horiz-adv-x="866" d="M82 0v823h61v-823h-61zM217 0v823h324q100 -2 171.5 -68.5t71.5 -183.5q0 -41 -9 -76.5t-25 -64.5q55 -68 55 -170q0 -125 -73 -192.5t-175 -67.5h-340zM279 61h276q78 0 133 49.5t55 149.5q0 96 -55 145.5t-133 49.5h-276v-74h278q51 0 82 -33t31 -88q0 -57 -31 -91 t-82 -34h-278v-74zM279 197h276q23 0 38 14t15 49q0 33 -15 46t-38 13h-276v-122zM279 516h278h12q8 10 13.5 23.5t5.5 31.5q0 29 -14 42.5t-37 13.5h-258v-111zM279 688h262q49 -2 78.5 -33.5t29.5 -83.5q0 -39 -16 -65q39 -12 69 -33q20 43 21 98q0 94 -54 142.5 t-132 48.5h-258v-74z" />
<glyph unicode="c" horiz-adv-x="913" d="M61 412q0 123 59.5 220t160 154.5t225.5 57.5q106 0 196.5 -43t149.5 -115l-47 -37q-51 61 -129 97t-170 36q-109 0 -196 -49t-137 -132t-50 -189q0 -104 50 -188.5t137 -133.5t196 -49q92 0 170 36t129 97l47 -37q-59 -72 -149.5 -114.5t-196.5 -42.5q-125 0 -225.5 57 t-160 155.5t-59.5 219.5zM197 412q0 84 41 151.5t110.5 106.5t157.5 39q74 0 136.5 -29t102.5 -78l-49 -37q-70 82 -190 82q-106 0 -177 -66.5t-71 -168.5q0 -100 70.5 -168t177.5 -68q121 0 190 82l49 -37q-41 -49 -103 -77.5t-136 -28.5q-88 0 -157.5 39t-110.5 106.5 t-41 151.5z" />
<glyph unicode="d" horiz-adv-x="921" d="M82 0v823h61v-823h-61zM217 0v823h205q129 -2 227.5 -55t154.5 -145.5t56 -210.5q0 -119 -56 -212.5t-155.5 -146.5t-226.5 -53h-205zM279 61h137q115 0 200.5 44.5t134 124t48.5 182.5q0 104 -48.5 183t-134 123t-200.5 44h-137v-74h143q135 -2 219 -77.5t84 -198.5 q0 -125 -85 -201t-218 -76h-143v-74zM279 197h137q115 0 181.5 57t66.5 158q0 100 -66.5 157.5t-181.5 57.5h-137v-430z" />
<glyph unicode="e" horiz-adv-x="743" d="M82 0v823h61v-823h-61zM217 0v823h490v-61h-428v-74h428v-61h-428v-117h362v-61h-362v-74h362v-62h-362v-116h428v-62h-428v-74h428v-61h-490z" />
<glyph unicode="f" horiz-adv-x="747" d="M82 0v823h61v-823h-61zM217 0v823h490v-61h-428v-74h428v-61h-428v-117h362v-61h-362v-74h362v-62h-362v-313h-62z" />
<glyph unicode="g" horiz-adv-x="989" d="M61 412q0 123 59.5 220t160 154.5t225.5 57.5q117 0 213 -50.5t153 -134.5l-49 -34q-51 72 -133 114.5t-184 42.5q-109 0 -196 -49t-137 -132t-50 -189q0 -104 50 -188.5t137 -133.5t196 -49q125 0 221 64.5t137 168.5h-319v62h383v-62q-43 -131 -156.5 -212.5 t-265.5 -81.5q-125 0 -225.5 57t-160 155.5t-59.5 219.5zM197 412q0 84 41 151.5t110.5 106.5t157.5 39q82 0 148.5 -34t107.5 -91l-51 -35q-72 98 -205 98q-106 0 -177 -66.5t-71 -168.5q0 -100 70.5 -168t177.5 -68q133 0 205 98h71q-39 -72 -111.5 -115.5t-164.5 -43.5 q-88 0 -157.5 39t-110.5 106.5t-41 151.5zM545 410v61h383v-61h-383z" />
<glyph unicode="h" horiz-adv-x="876" d="M82 0v823h61v-823h-61zM217 0v823h62v-313h319v313h61v-823h-61v313h-319v-313h-62zM279 375h319v74h-319v-74zM733 0v823h62v-823h-62z" />
<glyph unicode="i" d="M82 0v823h61v-823h-61zM217 0v823h62v-823h-62z" />
<glyph unicode="j" horiz-adv-x="798" d="M61 309h62q0 -131 79 -199.5t187 -68.5q109 0 187.5 68.5t78.5 199.5v514h62v-516q-2 -104 -46 -177t-118 -111.5t-164 -38.5t-164.5 38.5t-119 112.5t-44.5 178zM197 309h61q0 -70 39 -101.5t92 -31.5t92 32t39 101v514h62v-516q-2 -96 -58.5 -144t-134.5 -48t-135 49 t-57 145z" />
<glyph unicode="k" horiz-adv-x="780" d="M82 0v823h61v-823h-61zM217 0v823h62v-438l307 -385h-78l-229 287v-287h-62zM303 471l201 352h71l-198 -346l49 -61l236 407h71l-266 -456l293 -367h-80z" />
<glyph unicode="l" horiz-adv-x="675" d="M82 0v823h61v-823h-61zM217 0v823h62v-626h366v-62h-366v-74h366v-61h-428z" />
<glyph unicode="m" horiz-adv-x="1026" d="M82 0v823h61v-823h-61zM217 0v823h62l233 -293l236 293h61v-823h-61v510l-148 -188l-321 403v-119l274 -342l-39 -49l-235 293v-508h-62zM553 481l47 -59l148 186v119zM883 0v823h61v-823h-61z" />
<glyph unicode="n" horiz-adv-x="909" d="M82 0v823h61v-823h-61zM217 0v823h62l352 -489v489h61v-823h-61l-352 489v-489h-62zM279 594l352 -490v125l-352 490v-125zM766 0v823h61v-823h-61z" />
<glyph unicode="o" horiz-adv-x="1011" d="M61 412q0 123 59.5 220t160 154.5t225.5 57.5t225 -57.5t159.5 -154.5t59.5 -220q0 -121 -59.5 -219.5t-159.5 -155.5t-225 -57t-225.5 57t-160 155.5t-59.5 219.5zM123 412q0 -104 50 -188.5t137 -133.5t196 -49t195.5 49t137 133.5t50.5 188.5q0 106 -50.5 189 t-137.5 132t-195 49q-109 0 -196 -49t-137 -132t-50 -189zM197 412q0 84 41 151.5t110.5 106.5t157.5 39t157.5 -39t110.5 -106.5t41 -151.5t-41 -151.5t-110.5 -106.5t-157.5 -39t-157.5 39t-110.5 106.5t-41 151.5zM258 412q0 -100 70.5 -168t177.5 -68q106 0 177 68 t71 168q0 102 -71 168.5t-177 66.5t-177 -66.5t-71 -168.5z" />
<glyph unicode="p" horiz-adv-x="843" d="M82 0v823h61v-823h-61zM217 0v823h322q100 -2 171.5 -68.5t71.5 -183.5q0 -119 -71.5 -185.5t-171.5 -66.5h-260v-319h-62zM279 381h256q78 0 132 48t54 142t-54 142.5t-132 48.5h-256v-74h260q49 -2 78.5 -33.5t29.5 -83.5q0 -51 -30.5 -83.5t-77.5 -32.5h-260v-74z M279 516h256q23 0 37 13.5t14 41.5q0 29 -14 42.5t-37 13.5h-256v-111z" />
<glyph unicode="q" horiz-adv-x="1011" d="M61 412q0 123 59.5 220t160 154.5t225.5 57.5t225 -57.5t159.5 -154.5t59.5 -220q0 -127 -67 -234l67 -67l-43 -43l-270 270l43 43l57 -57q16 41 17 88q0 102 -71 168.5t-177 66.5t-177 -66.5t-71 -168.5q0 -100 70.5 -168t177.5 -68q47 0 88 14l-53 52l43 43l272 -271 l-45 -43l-72 72q-49 -31 -108 -47t-125 -16q-125 0 -225.5 57t-160 155.5t-59.5 219.5zM123 412q0 -104 50 -188.5t137 -133.5t196 -49q104 0 190 47l-55 55q-63 -28 -135 -28q-88 0 -157.5 39t-110.5 106.5t-41 151.5t41 151.5t110.5 106.5t157.5 39t157.5 -39 t110.5 -106.5t41 -151.5q0 -72 -33 -133l56 -56q25 41 38 88t13 101q0 106 -50.5 189t-137.5 132t-195 49q-109 0 -196 -49t-137 -132t-50 -189z" />
<glyph unicode="r" horiz-adv-x="843" d="M82 0v823h61v-823h-61zM217 0v823h322q100 -2 171.5 -68.5t71.5 -183.5q0 -90 -44 -151.5t-113 -85.5l143 -334h-68l-135 322q-16 -2 -26 -3h-54l136 -319h-68l-135 319h-139v-319h-62zM279 381h256q78 0 132 48t54 142t-54 142.5t-132 48.5h-256v-74h260 q49 -2 78.5 -33.5t29.5 -83.5q0 -51 -30.5 -83.5t-77.5 -32.5h-260v-74zM279 516h256q23 0 37 13.5t14 41.5q0 29 -14 42.5t-37 13.5h-256v-111z" />
<glyph unicode="s" horiz-adv-x="776" d="M61 207l62 8q10 -78 81.5 -126t182.5 -48q119 0 192.5 54.5t73.5 148.5q0 76 -47 123t-137 69l-125 33q-70 18 -106.5 46t-36.5 73q0 55 52 88t134 33q76 0 127 -30t57 -77l-59 -8q-10 53 -125 53q-57 0 -91 -15.5t-34 -43.5q0 -18 22.5 -31.5t98.5 -36.5l109 -31 q106 -31 164.5 -90t58.5 -155q0 -123 -91.5 -193.5t-236.5 -70.5q-135 0 -224 63t-102 164zM66 588q0 74 42 131t115.5 91t163.5 34q131 0 219 -63.5t101 -164.5l-62 -6q-8 78 -78.5 125t-179.5 47q-113 0 -186.5 -55t-73.5 -139q0 -76 49 -117t139 -68l113 -32 q152 -45 152 -135q0 -57 -52.5 -89t-140.5 -32q-82 0 -134 30.5t-58 79.5l61 8q2 -27 37 -42t94 -15q131 0 131 57q0 25 -26.5 44.5t-96.5 39.5l-104 31q-96 29 -160.5 86.5t-64.5 153.5z" />
<glyph unicode="t" horiz-adv-x="714" d="M20 627v61h674v-61h-239v-627h-62v627h-74v-627h-61v627h-238zM20 762v61h674v-61h-674z" />
<glyph unicode="u" horiz-adv-x="819" d="M82 307v516h61v-514q0 -131 79 -199.5t188 -68.5t187.5 68.5t78.5 199.5v514h61v-516q-2 -104 -46 -177t-117.5 -111.5t-163.5 -38.5t-165 38.5t-119 112.5t-44 176zM217 307v516h62v-514q0 -70 38.5 -101.5t92.5 -31.5q53 0 92 32t39 101v514h61v-516q-2 -96 -58.5 -144 t-133.5 -48q-78 0 -135.5 49t-57.5 143z" />
<glyph unicode="v" horiz-adv-x="806" d="M20 823h66l279 -823h-66zM164 823h65l177 -518l172 518h65l-207 -612l39 -115l246 727h65l-278 -823h-66z" />
<glyph unicode="w" horiz-adv-x="1067" d="M20 823h64l217 -823h-63zM160 823h63l115 -436l117 436h63l-147 -557l37 -145l186 702h63l-22 -84l92 -350l117 434h63l-147 -557l37 -143l186 700h64l-218 -823h-63l-162 618l-39 -143l125 -475h-63l-95 352l-92 -352h-63z" />
<glyph unicode="x" horiz-adv-x="755" d="M20 0l244 430l-223 393h72l467 -823h-72l-131 229l-129 -229h-72l166 293l-43 74l-207 -367h-72zM197 823h71l113 -196l111 196h69l-145 -260l43 -76l186 336h72l-223 -397l241 -426h-71z" />
<glyph unicode="y" horiz-adv-x="864" d="M20 823h76l291 -424h-76zM186 823h76l170 -248l170 248h76l-207 -305l43 -63l254 368h76l-291 -424h-76zM334 0v350h61v-350h-61zM469 0v350h61v-350h-61z" />
<glyph unicode="z" horiz-adv-x="837" d="M82 0v61h674v-61h-674zM82 135v62l405 430h84l-405 -430h100l406 430h-590v61h674v-61l-406 -430h406v-62h-674zM82 762v61h674v-61h-674z" />
<glyph unicode="{" horiz-adv-x="907" d="M102 315v62h193v-62h-193zM102 451v61h193v-61h-193zM354 -55v938h62v-938h-62zM489 -55v938h62v-938h-62zM612 6h193v-61h-193v61zM612 80v61h193v-61h-193zM612 686v62h193v-62h-193zM612 821v62h193v-62h-193z" />
<glyph unicode="|" horiz-adv-x="401" d="M102 -55v946h62v-946h-62zM238 -55v946h61v-946h-61z" />
<glyph unicode="}" horiz-adv-x="1036" d="M231 6h193v-61h-193v61zM231 80v61h193v-61h-193zM231 686v62h193v-62h-193zM231 821v62h193v-62h-193zM485 -55v938h62v-938h-62zM621 -55v938h61v-938h-61zM741 315v62h193v-62h-193zM741 451v61h193v-61h-193z" />
<glyph unicode="~" horiz-adv-x="921" d="M82 291v71q49 29 96 42.5t105 13.5q41 0 83 -6t80 -23l56 -22q63 -27 137 -27q109 0 201 66v-72q-49 -29 -95.5 -42t-105.5 -13q-45 0 -85 7t-77 21l-57 25q-57 25 -135 24q-111 0 -203 -65zM82 432v72q49 29 96 42t105 13q84 0 163 -29l56 -22q63 -27 137 -27 q109 0 201 66v-72q-49 -29 -95.5 -42t-105.5 -13q-86 0 -162 29l-57 24q-57 25 -135 25q-111 0 -203 -66z" />
<glyph unicode="&#xa1;" horiz-adv-x="401" d="M102 -227v598h62v-598h-62zM102 426v170h62v-170h-62zM238 -227v598h61v-598h-61zM238 426v170h61v-170h-61z" />
<glyph unicode="&#xa2;" horiz-adv-x="624" d="M20 403q0 141 91.5 228.5t234.5 87.5q88 0 149.5 -33t102.5 -82l-49 -37q-35 41 -87 65.5t-116 24.5q-113 0 -187.5 -72.5t-74.5 -181.5q0 -106 74.5 -178.5t187.5 -72.5q63 0 115.5 24.5t87.5 65.5l49 -37q-41 -49 -102.5 -83t-149.5 -34q-143 0 -234.5 88t-91.5 227z M135 403q0 86 60.5 144.5t150.5 58.5q102 0 164 -71l-49 -39q-41 49 -115 49q-57 0 -103 -44t-46 -98q0 -53 46 -96t103 -43v-63q-90 0 -150.5 58t-60.5 144zM240 39h61v-129h-61v129zM240 758v129h61v-129h-61zM346 203v61q74 0 115 49l49 -39q-62 -71 -164 -71zM375 39h61 v-129h-61v129zM375 758v129h61v-129h-61z" />
<glyph unicode="&#xa3;" horiz-adv-x="835" d="M10 0v68h766v-68h-766zM10 129v68h766v-68h-766zM10 360v68h576v-68h-576zM10 489v68h576v-68h-576zM43 670q0 84 70.5 134t203.5 50q125 0 210 -55.5t98 -151.5l-60 -16q-4 70 -70.5 116t-177.5 46q-106 0 -159.5 -35t-53.5 -94q0 -16 9 -33h-66q-2 10 -3 19t-1 20z M90 246q16 16 25.5 30.5t17.5 28.5h70q-10 -20 -19.5 -34.5t-19.5 -24.5h-74zM178 647q0 35 39 53.5t109 18.5q63 0 105 -17.5t48 -68.5h-63q-4 10 -22.5 17t-69.5 7q-84 0 -84 -16q0 -2 4 -10h-62q-4 8 -4 16zM231 246q16 16 25.5 30.5t17.5 28.5h70q-10 -20 -19.5 -34.5 t-19.5 -24.5h-74z" />
<glyph unicode="&#xa4;" horiz-adv-x="821" d="M61 190l86 89l43 -43l-86 -89zM61 610l43 43l86 -88l-43 -43zM156 94l88 88l43 -43l-86 -88zM156 707l45 43l86 -88l-43 -44zM199 410q0 86 59 146t148 60q90 0 148 -60t58 -146t-58 -147.5t-148 -61.5q-88 0 -147.5 61.5t-59.5 147.5zM260 412q0 -61 43.5 -104.5 t104.5 -43.5q59 0 101 43t42 105q0 59 -42 101t-101 42q-61 0 -104.5 -42t-43.5 -101zM326 414q0 33 24.5 56.5t57.5 23.5t56 -24t23 -56q0 -33 -23 -57.5t-56 -24.5t-57.5 24.5t-24.5 57.5zM379 414q0 -27 27 -27t26 27q0 27 -26 26q-27 0 -27 -26zM535 139l43 43l88 -88 l-45 -43zM535 662l86 88l45 -43l-88 -89zM631 236l43 43l86 -89l-43 -43zM631 565l86 88l43 -43l-86 -88z" />
<glyph unicode="&#xa5;" horiz-adv-x="866" d="M23 823h75l291 -424h-76zM113 106v62h149v-62h-149zM113 242v61h149v-61h-149zM188 823h76l170 -248l170 248h76l-207 -305l43 -63l254 368h76l-291 -424h-76zM336 0v350h61v-350h-61zM471 0v350h61v-350h-61zM606 106v62h150v-62h-150zM606 242v61h150v-61h-150z" />
<glyph unicode="&#xa6;" horiz-adv-x="401" d="M102 0v371h62v-371h-62zM102 520v373h62v-373h-62zM238 0v371h61v-371h-61zM238 520v373h61v-373h-61z" />
<glyph unicode="&#xa7;" horiz-adv-x="659" d="M63 403q0 55 25 99l49 -27q-18 -31 -18 -72q0 -113 145 -149l98 -27q117 -31 117 -98q0 -43 -42.5 -70.5t-110.5 -27.5q-63 0 -104.5 25.5t-45.5 66.5l53 6q4 -41 97 -41q45 0 70.5 10.5t25.5 30.5q0 14 -18.5 22.5t-77.5 26.5l-84 27q-178 57 -179 198zM66 109l57 6 q8 -63 63.5 -100.5t141.5 -37.5q96 0 151.5 42t55.5 114q0 109 -144 150l-98 24q-117 33 -117 99q0 29 14 45l62 -15q-8 -6 -13.5 -13t-5.5 -17q0 -12 20.5 -21.5t76.5 -26.5l84 -26q178 -51 178 -199q0 -96 -71.5 -154.5t-192.5 -58.5q-111 0 -181.5 52.5t-80.5 136.5z M72 680q0 96 71.5 154.5t190.5 58.5q111 0 182.5 -52.5t79.5 -135.5l-57 -7q-6 63 -62.5 100.5t-142.5 37.5q-94 0 -150.5 -42t-56.5 -114q0 -111 145 -150l99 -26q117 -33 116 -98q0 -32 -20 -52l-59 23q23 10 22 29q0 14 -18.5 22t-77.5 27l-84 26q-178 57 -178 199z M184 682q0 45 42 73.5t110 28.5q63 0 105 -25.5t44 -66.5l-53 -8q0 43 -96 43q-94 0 -94 -45q0 -12 20.5 -21.5t75.5 -25.5l84 -27q178 -57 178 -198q0 -62 -27 -103l-51 27q20 35 21 76q0 55 -34 93t-110 56l-98 25q-117 31 -117 98z" />
<glyph unicode="&#xa8;" horiz-adv-x="587" d="M102 1065q0 29 20.5 48.5t47.5 19.5q29 0 49.5 -19.5t20.5 -48.5t-20.5 -48.5t-49.5 -19.5q-27 0 -47.5 19.5t-20.5 48.5zM348 1065q0 29 20.5 48.5t47.5 19.5q29 0 49 -19.5t20 -48.5t-20 -48.5t-49 -19.5q-27 0 -47.5 19.5t-20.5 48.5z" />
<glyph unicode="&#xa9;" horiz-adv-x="1009" d="M61 412q0 125 58.5 225t159 158.5t223.5 58.5q125 0 226 -58.5t160.5 -158.5t59.5 -225q0 -123 -59.5 -223.5t-160.5 -159t-226 -58.5q-123 0 -223.5 58.5t-159 159t-58.5 223.5zM125 412q0 -104 51 -190.5t136.5 -137.5t189.5 -51q111 0 196.5 51t135 137t49.5 191 q0 109 -49.5 194.5t-135.5 136t-196 50.5q-104 0 -189.5 -50.5t-136.5 -136.5t-51 -194zM303 401q0 92 57.5 147.5t147.5 59.5h2h18q49 -4 89 -22.5t73 -59.5l-45 -37q-59 63 -127 60q-66 0 -109.5 -42t-43.5 -106q0 -61 43 -103t104 -44q82 2 133 61l45 -36 q-57 -74 -162 -82h-18h-2q-92 4 -148.5 60t-56.5 144z" />
<glyph unicode="&#xaa;" horiz-adv-x="677" d="M102 461l131 362h52l-129 -362h-54zM199 461l131 362h47l-15 -39l117 -323h-51l-12 35h-156l-12 -35h-49zM276 543h123l-14 35h-96zM307 627h62l-31 86zM393 823h51l131 -362h-51z" />
<glyph unicode="&#xab;" horiz-adv-x="610" d="M82 342v76l186 -135v-76zM82 512l192 137v-76l-139 -100zM188 424l95 68v-76l-41 -31zM328 342v76l186 -135v-76zM328 512l192 137v-76l-139 -100zM434 424l94 68v-76l-41 -31z" />
<glyph unicode="&#xac;" horiz-adv-x="860" d="M82 315v62h696v-62h-696zM82 451v61h696v-61h-696zM575 76v164h62v-164h-62zM711 76v164h61v-164h-61z" />
<glyph unicode="&#xad;" horiz-adv-x="667" d="M102 313v62h463v-62h-463zM102 449v61h463v-61h-463z" />
<glyph unicode="&#xae;" horiz-adv-x="1009" d="M61 412q0 125 58.5 225t159 158.5t223.5 58.5q125 0 226 -58.5t160.5 -158.5t59.5 -225q0 -123 -59.5 -223.5t-160.5 -159t-226 -58.5q-123 0 -223.5 58.5t-159 159t-58.5 223.5zM125 412q0 -104 51 -190.5t136.5 -137.5t189.5 -51q111 0 196.5 51t135 137t49.5 191 q0 109 -49.5 194.5t-135.5 136t-196 50.5q-104 0 -189.5 -50.5t-136.5 -136.5t-51 -194zM340 217v371h61v-371h-61zM438 356v60h133q23 0 37.5 13t14.5 42t-14.5 42t-37.5 13h-133v62h133q51 0 82 -32t31 -85q0 -84 -70 -109l62 -145h-66l-63 139h-109z" />
<glyph unicode="&#xaf;" horiz-adv-x="677" d="M102 989v62h473v-62h-473z" />
<glyph unicode="&#xb0;" horiz-adv-x="610" d="M98 647q0 86 59.5 146.5t147.5 60.5q90 0 148.5 -60.5t58.5 -146.5t-58.5 -147.5t-148.5 -61.5q-88 0 -147.5 61.5t-59.5 147.5zM156 649q0 -63 44 -107t107 -44q59 0 103.5 44t44.5 107q0 59 -44 103.5t-104 44.5q-63 0 -107 -44t-44 -104zM225 651q0 33 24.5 56.5 t57.5 23.5t56.5 -23.5t23.5 -56.5t-23.5 -57.5t-56.5 -24.5t-57.5 24.5t-24.5 57.5zM276 651q0 -28 29 -28t29 28q0 29 -29 29t-29 -29z" />
<glyph unicode="&#xb1;" horiz-adv-x="856" d="M82 2v61h692v-61h-692zM82 127v61h692v-61h-692zM106 440v62h150v-62h-150zM106 575v62h150v-62h-150zM330 262v561h61v-561h-61zM465 262v561h61v-561h-61zM600 440v62h150v-62h-150zM600 575v62h150v-62h-150z" />
<glyph unicode="&#xb2;" horiz-adv-x="477" d="M102 418v41h267v-41h-267zM102 492v40h267v-40h-267zM106 690q-2 66 36 106t100 40q59 0 97 -36t36 -87q2 -33 -14.5 -66t-43.5 -55l-30 -27h-62l51 41q35 27 47.5 52.5t10.5 41.5q2 45 -23.5 70t-68.5 25q-94 0 -95 -103zM117 565l112 99q33 31 33 47q-2 12 -20 12 q-23 0 -21 -29h-39q-4 70 62 70q29 0 43 -15.5t14 -35.5v-6v-2q-2 -35 -39 -66l-82 -74h-63z" />
<glyph unicode="&#xb3;" horiz-adv-x="466" d="M102 539h39q-2 -39 25 -64.5t67 -25.5q41 0 68 25.5t25 62.5q-2 43 -29 66.5t-68 21.5v39q66 2 101 -32t35 -93q0 -8 0 -4v-3q-2 -55 -39.5 -89.5t-92.5 -34.5q-57 0 -95 36.5t-36 94.5zM102 702q-2 55 36 93.5t95 38.5q59 0 95.5 -33t36.5 -86q0 -29 -13 -58l-33 23 q2 6 4.5 16.5t2.5 18.5q0 39 -26 59.5t-67 20.5q-39 0 -66.5 -25t-25.5 -61zM176 539h39q-4 -16 18 -17q16 0 19 13v4q-2 14 -23 14v41q29 2 46.5 -15.5t15.5 -39.5q2 -25 -13.5 -41.5t-44.5 -16.5q-27 0 -43 16.5t-14 41.5zM176 702q-2 23 14.5 40.5t42.5 17.5 q27 0 42.5 -15.5t15.5 -31.5v-8q0 -12 -4 -17l-35 8q2 4 2 9q0 18 -18 18q-23 0 -19 -21h-41z" />
<glyph unicode="&#xb4;" horiz-adv-x="399" d="M102 963h72l123 204h-72z" />
<glyph unicode="&#xb5;" horiz-adv-x="1036" d="M102 -254v1075h62v-1075h-62zM238 -254v1075h61v-1075h-61zM340 -6l2 63q39 -16 88 -16q109 0 187.5 68.5t78.5 199.5v514h62v-516q-2 -104 -46 -177t-118 -111.5t-164 -38.5q-27 0 -46 3t-44 11zM342 133v70q16 -14 40 -20.5t48 -6.5q53 0 92 32t39 101v514h62v-514 q2 -96 -56.5 -145t-136.5 -49q-47 0 -88 18zM690 35l41 47q53 -41 119 -41t111 33l30 -47q-20 -20 -54 -33.5t-87 -13.5q-94 0 -160 55zM770 145l29 54q10 -10 19 -16.5t32 -6.5q31 0 47 23l29 -56q-25 -28 -76 -28q-49 0 -80 30z" />
<glyph unicode="&#xb6;" horiz-adv-x="890" d="M51 571q0 119 73 185.5t175 66.5h489v-61h-489q-76 0 -131 -48t-55 -143q0 -94 55 -142t131 -48h68v-62h-68q-102 0 -175 67t-73 185zM186 571q0 53 31 85t82 32h489v-61h-489q-20 0 -35.5 -13.5t-15.5 -42.5t15.5 -42t35.5 -13h68v-61h-68q-51 0 -82 32.5t-31 83.5z M428 0v553h61v-553h-61zM557 0v553h61v-553h-61zM727 0v553h61v-553h-61z" />
<glyph unicode="&#xb7;" d="M82 334v168h61v-168h-61zM217 334v168h62v-168h-62z" />
<glyph unicode="&#xb8;" horiz-adv-x="534" d="M102 -297l45 39q47 -37 113 -37q51 0 81 20.5t30 59.5q0 70 -86 70q-27 0 -54.5 -8.5t-44.5 -24.5l-51 31l92 147h76l-63 -94q27 10 57 10q53 0 94 -31.5t41 -97.5q0 -70 -48 -106.5t-118 -36.5q-47 0 -91 16t-73 43z" />
<glyph unicode="&#xb9;" horiz-adv-x="446" d="M102 707v41h93v-41h-93zM102 780v41h93v-41h-93zM229 414v409h41v-409h-41zM303 414v409h41v-409h-41z" />
<glyph unicode="&#xba;" horiz-adv-x="686" d="M102 647q0 98 70 165t170 69q102 -2 173 -69t69 -165q0 -100 -70 -167.5t-172 -67.5q-100 0 -170 67.5t-70 167.5zM162 647q-2 -76 50 -128t130 -52t132 52t50 128q0 74 -52 124t-130 50q-76 0 -128 -50t-52 -124zM203 647q0 55 41 94t98 39q59 0 99 -39t40 -94 q0 -57 -40 -95t-99 -40q-57 0 -98 39t-41 96zM244 647q0 -41 28.5 -67.5t69.5 -26.5q43 0 71.5 26.5t28.5 67.5t-28.5 66.5t-71.5 25.5q-41 0 -69.5 -25.5t-28.5 -66.5z" />
<glyph unicode="&#xbb;" horiz-adv-x="610" d="M82 416v76l94 -68l-53 -39zM90 573v76l193 -137l-54 -39zM96 207v76l187 135v-76zM328 416v76l94 -68l-53 -39zM336 573v76l192 -137l-53 -39zM342 207v76l186 135v-76z" />
<glyph unicode="&#xbc;" horiz-adv-x="878" d="M61 707v41h93v-41h-93zM61 780v41h93v-41h-93zM168 0l457 823h47l-457 -823h-47zM188 414v409h41v-409h-41zM260 0l457 823h47l-457 -823h-47zM262 414v409h41v-409h-41zM522 43v41h144v-41h-144zM522 119v41h144v-41h-144zM530 193l107 217h47l-106 -217h-48zM614 193 l107 217h45l-107 -217h-45zM700 0v209h41v-209h-41zM776 0v209h41v-209h-41z" />
<glyph unicode="&#xbd;" horiz-adv-x="894" d="M61 707v41h93v-41h-93zM61 780v41h93v-41h-93zM145 0l457 823h47l-456 -823h-48zM188 414v409h41v-409h-41zM238 0l456 823h47l-456 -823h-47zM262 414v409h41v-409h-41zM557 0v41h270v-41h-270zM557 76v41h270v-41h-270zM561 279q-2 66 36 106.5t101 40.5q61 0 99.5 -37 t36.5 -88q2 -35 -14.5 -67.5t-43.5 -55.5l-33 -28h-61l51 43q63 57 60 96q2 45 -24 70.5t-71 25.5q-96 0 -96 -104zM571 150l115 100q33 33 33 49q-2 12 -21 12q-23 0 -20 -28h-41q-4 70 63 69q29 0 44.5 -15t15.5 -36v-6v-2q-2 -33 -41 -68l-84 -75h-64z" />
<glyph unicode="&#xbe;" horiz-adv-x="837" d="M61 555h39q-2 -39 25 -64.5t68 -25.5t67.5 25.5t24.5 62.5q-2 43 -29 66.5t-68 21.5v39q66 2 101 -32t35 -93q0 -8 0 -4v-2q-2 -55 -39 -90t-92 -35q-57 0 -95.5 37t-36.5 94zM61 719q-2 55 36 93t96 38q59 0 95 -33t36 -86q0 -29 -13 -57l-32 22q2 6 4 16.5t2 18.5 q0 39 -26 59.5t-66 20.5q-39 0 -67 -24.5t-26 -61.5zM125 0l457 823h47l-457 -823h-47zM135 555h39q-4 -16 19 -16q16 0 18 12v4q-2 14 -23 14v41q29 2 46.5 -15t15.5 -40q2 -25 -13 -41t-44 -16q-27 0 -43.5 16t-14.5 41zM135 719q-2 23 14.5 40t43.5 17t42 -15.5t15 -31.5 v-8q0 -12 -4 -16l-35 8q2 4 2 8q0 18 -18 18q-23 0 -19 -20h-41zM217 0l457 823h47l-457 -823h-47zM481 45v41h144v-41h-144zM481 121v41h144v-41h-144zM489 195l107 217h47l-106 -217h-48zM573 195l107 217h45l-107 -217h-45zM659 2v209h41v-209h-41zM735 2v209h41v-209 h-41z" />
<glyph unicode="&#xbf;" horiz-adv-x="708" d="M102 117q0 66 15.5 116t60.5 89l43 36q35 29 35 74v103h63q0 -55 -3 -117t-52 -105l-49 -43q-39 -33 -45 -82t-6 -71q0 -76 48 -131.5t142 -55.5t142.5 55.5t48.5 131.5h61q0 -102 -66.5 -175t-185.5 -73t-185.5 72.5t-66.5 175.5zM238 117q0 51 16 77.5t45 53.5l41 39 q33 31 42 78t9 95v75h64v-84.5t-13.5 -109.5t-56.5 -97l-49 -47q-25 -25 -31 -45.5t-6 -34.5q0 -20 13.5 -35.5t41.5 -15.5q29 0 42.5 15t13.5 36h61q0 -51 -31.5 -82t-85.5 -31q-51 0 -83.5 31t-32.5 82zM256 608v115h61v-115h-61zM391 608v115h62v-115h-62z" />
<glyph unicode="&#xc0;" horiz-adv-x="1634" d="M41 0l596 1647h63l-594 -1647h-65zM184 0l594 1647h68l-596 -1647h-66zM328 0l596 1647h65l-596 -1647h-65zM462 2191h72l248 -411h-72zM563 272l23 62h467l22 -62h-512zM612 408l23 61h369l22 -61h-414zM620 2191h72l248 -411h-72zM662 545l22 61h270l23 -61h-315z M852 1077l33 92l422 -1169h-66zM924 1276l30 94l496 -1370h-66zM993 1477l33 92l567 -1569h-65z" />
<glyph unicode="&#xc1;" horiz-adv-x="1634" d="M41 0l596 1647h63l-594 -1647h-65zM184 0l594 1647h68l-596 -1647h-66zM328 0l596 1647h65l-596 -1647h-65zM563 272l23 62h467l22 -62h-512zM612 408l23 61h369l22 -61h-414zM662 545l22 61h270l23 -61h-315zM729 1780h72l248 411h-72zM852 1077l33 92l422 -1169h-66z M887 1780h72l248 411h-72zM924 1276l30 94l496 -1370h-66zM993 1477l33 92l567 -1569h-65z" />
<glyph unicode="&#xc2;" horiz-adv-x="1634" d="M41 0l596 1647h63l-594 -1647h-65zM184 0l594 1647h68l-596 -1647h-66zM328 0l596 1647h65l-596 -1647h-65zM358 1780l310 411h77l-309 -411h-78zM528 1780l310 411h77l-309 -411h-78zM563 272l23 62h467l22 -62h-512zM612 408l23 61h369l22 -61h-414zM662 545l22 61h270 l23 -61h-315zM838 1966l39 51l178 -237h-78zM852 1077l33 92l422 -1169h-66zM924 1276l30 94l496 -1370h-66zM924 2079l37 51l264 -350h-78zM993 1477l33 92l567 -1569h-65z" />
<glyph unicode="&#xc3;" horiz-adv-x="1634" d="M41 0l596 1647h63l-594 -1647h-65zM184 0l594 1647h68l-596 -1647h-66zM328 0l596 1647h65l-596 -1647h-65zM430 1792q0 111 58.5 174.5t154.5 63.5q70 0 114 -32t81 -69q35 -33 70.5 -60.5t87.5 -27.5q78 0 114.5 56.5t36.5 119.5h62q0 -111 -58.5 -174t-154.5 -63 q-70 0 -115 30.5t-82 69.5q-33 35 -67.5 61.5t-88.5 26.5q-76 0 -113.5 -55t-37.5 -121h-62zM563 272l23 62h467l22 -62h-512zM612 408l23 61h369l22 -61h-414zM662 545l22 61h270l23 -61h-315zM852 1077l33 92l422 -1169h-66zM924 1276l30 94l496 -1370h-66zM993 1477 l33 92l567 -1569h-65z" />
<glyph unicode="&#xc4;" horiz-adv-x="1634" d="M41 0l596 1647h63l-594 -1647h-65zM184 0l594 1647h68l-596 -1647h-66zM328 0l596 1647h65l-596 -1647h-65zM344 1993q0 88 57.5 143t141.5 55q86 0 143.5 -55t57.5 -143t-57.5 -143.5t-143.5 -55.5q-84 0 -141.5 55.5t-57.5 143.5zM406 1993q0 -61 40 -99.5t97 -38.5 q59 0 99 38t40 100q0 63 -40 100t-99 37q-57 0 -97 -37t-40 -100zM563 272l23 62h467l22 -62h-512zM612 408l23 61h369l22 -61h-414zM662 545l22 61h270l23 -61h-315zM852 1077l33 92l422 -1169h-66zM897 1993q0 88 57.5 143t141.5 55q86 0 143.5 -55t57.5 -143 t-57.5 -143.5t-143.5 -55.5q-84 0 -141.5 55.5t-57.5 143.5zM924 1276l30 94l496 -1370h-66zM959 1993q0 -61 40 -99.5t97 -38.5q59 0 99 38t40 100q0 63 -40 100t-99 37q-57 0 -97 -37t-40 -100zM993 1477l33 92l567 -1569h-65z" />
<glyph unicode="&#xc5;" horiz-adv-x="1634" d="M41 0l596 1647h63l-594 -1647h-65zM184 0l594 1647h68l-596 -1647h-66zM328 0l596 1647h65l-596 -1647h-65zM563 272l23 62h467l22 -62h-512zM604 1987q0 96 63.5 154.5t151.5 58.5q90 0 151.5 -58.5t61.5 -154.5t-61.5 -155.5t-151.5 -59.5q-88 0 -151.5 59t-63.5 156z M612 408l23 61h369l22 -61h-414zM662 545l22 61h270l23 -61h-315zM670 1987q0 -70 44 -110t105 -40q63 0 107.5 40t44.5 110t-44 109.5t-108 39.5q-61 0 -105 -40t-44 -109zM852 1077l33 92l422 -1169h-66zM924 1276l30 94l496 -1370h-66zM993 1477l33 92l567 -1569h-65z " />
<glyph unicode="&#xc6;" horiz-adv-x="2207" d="M41 0l780 1528l13 -107l-723 -1421h-70zM195 0l653 1288l14 -110l-598 -1178h-69zM346 0l531 1047l12 -109l-473 -938h-70zM584 170l30 61h361l6 -61h-397zM651 305l31 62h276l7 -62h-314zM721 442l31 62h190l6 -62h-227zM881 1647h61l195 -1647h-62zM1016 1647h63 l193 -1647h-62zM1153 1647h61l195 -1647h-63zM1288 1647h858v-62h-850zM1305 1511h841v-61h-835zM1321 1376h825v-61h-819zM1366 989h664v-61h-658zM1382 854h648v-61h-641zM1399 719h631v-62h-625zM1444 332h702v-62h-694zM1460 197h686v-62h-680zM1475 61h671v-61h-663z " />
<glyph unicode="&#xc7;" horiz-adv-x="1589" d="M61 823q0 178 61.5 333t174.5 271.5t269.5 183t348.5 66.5q188 0 344 -64.5t269 -178.5l-43 -43q-104 104 -248.5 164.5t-321.5 60.5q-180 0 -325.5 -61.5t-249.5 -170t-160.5 -253t-56.5 -308.5t56.5 -308t160.5 -252.5t249.5 -170t325.5 -61.5q176 0 320.5 60.5 t249.5 164.5l43 -43q-113 -113 -269 -178.5t-344 -65.5q-193 0 -349 66.5t-269 183.5t-174.5 271.5t-61.5 332.5zM197 823q0 150 50 280t145 229.5t227.5 154.5t295.5 55q162 0 292 -54t225 -151l-46 -45q-84 88 -203.5 137.5t-267.5 49.5q-201 0 -349 -88t-228 -236.5 t-80 -331.5q0 -180 80 -329.5t228.5 -237.5t348.5 -88q147 0 267.5 49t203.5 137l46 -45q-94 -94 -224.5 -149.5t-292.5 -55.5q-164 0 -296 56.5t-227 155t-145 228.5t-50 279zM332 823q0 162 69.5 294t200.5 211t313 79q133 0 240 -44t180 -122l-43 -43q-68 68 -162 106.5 t-215 38.5q-164 0 -281.5 -70.5t-179 -188t-61.5 -261.5q0 -143 61.5 -261t179.5 -188.5t281 -70.5q121 0 215.5 39t161.5 107l43 -43q-74 -76 -180.5 -121t-239.5 -45q-182 0 -313 78.5t-200.5 212t-69.5 292.5zM589 -395l41 45q33 -27 76 -43.5t105 -16.5q86 0 131 31 t45 84t-40 84t-102 31q-45 0 -89 -17.5t-64 -52.5l-49 37l147 233h78l-100 -153q39 14 86 14q80 0 137 -45t57 -127t-63 -131t-172 -49q-70 0 -125.5 21.5t-98.5 54.5z" />
<glyph unicode="&#xc8;" horiz-adv-x="1386" d="M102 0v1647h62v-1647h-62zM238 0v1647h61v-1647h-61zM373 0v1647h61v-1647h-61zM508 0v61h817v-61h-817zM508 135v62h817v-62h-817zM508 270v62h817v-62h-817zM508 657v62h700v-62h-700zM508 793v61h700v-61h-700zM508 928v61h700v-61h-700zM508 1315v61h817v-61h-817z M508 1450v61h817v-61h-817zM508 1585v62h817v-62h-817zM557 2191h72l248 -411h-72zM715 2191h72l248 -411h-72z" />
<glyph unicode="&#xc9;" horiz-adv-x="1386" d="M102 0v1647h62v-1647h-62zM238 0v1647h61v-1647h-61zM373 0v1647h61v-1647h-61zM508 0v61h817v-61h-817zM508 135v62h817v-62h-817zM508 270v62h817v-62h-817zM508 657v62h700v-62h-700zM508 793v61h700v-61h-700zM508 928v61h700v-61h-700zM508 1315v61h817v-61h-817z M508 1450v61h817v-61h-817zM508 1585v62h817v-62h-817zM548 1780h72l248 411h-72zM706 1780h72l248 411h-72z" />
<glyph unicode="&#xca;" horiz-adv-x="1386" d="M102 0v1647h62v-1647h-62zM238 0v1647h61v-1647h-61zM335 1780l310 411h77l-309 -411h-78zM373 0v1647h61v-1647h-61zM505 1780l310 411h77l-309 -411h-78zM508 0v61h817v-61h-817zM508 135v62h817v-62h-817zM508 270v62h817v-62h-817zM508 657v62h700v-62h-700zM508 793 v61h700v-61h-700zM508 928v61h700v-61h-700zM508 1315v61h817v-61h-817zM508 1450v61h817v-61h-817zM508 1585v62h817v-62h-817zM815 1966l39 51l178 -237h-78zM901 2079l37 51l264 -350h-78z" />
<glyph unicode="&#xcb;" horiz-adv-x="1386" d="M102 0v1647h62v-1647h-62zM238 0v1647h61v-1647h-61zM321 1993q0 88 57.5 143t141.5 55q86 0 143.5 -55t57.5 -143t-57.5 -143.5t-143.5 -55.5q-84 0 -141.5 55.5t-57.5 143.5zM373 0v1647h61v-1647h-61zM383 1993q0 -61 40 -99.5t97 -38.5q59 0 99 38t40 100 q0 63 -40 100t-99 37q-57 0 -97 -37t-40 -100zM508 0v61h817v-61h-817zM508 135v62h817v-62h-817zM508 270v62h817v-62h-817zM508 657v62h700v-62h-700zM508 793v61h700v-61h-700zM508 928v61h700v-61h-700zM508 1315v61h817v-61h-817zM508 1450v61h817v-61h-817zM508 1585 v62h817v-62h-817zM874 1993q0 88 57.5 143t141.5 55q86 0 143.5 -55t57.5 -143t-57.5 -143.5t-143.5 -55.5q-84 0 -141.5 55.5t-57.5 143.5zM936 1993q0 -61 40 -99.5t97 -38.5q59 0 99 38t40 100q0 63 -40 100t-99 37q-57 0 -97 -37t-40 -100z" />
<glyph unicode="&#xcc;" horiz-adv-x="536" d="M-109 2191h72l248 -411h-72zM49 2191h72l248 -411h-72zM102 0v1647h62v-1647h-62zM238 0v1647h61v-1647h-61zM373 0v1647h61v-1647h-61z" />
<glyph unicode="&#xcd;" horiz-adv-x="536" d="M102 0v1647h62v-1647h-62zM155 1780h72l248 411h-72zM238 0v1647h61v-1647h-61zM313 1780h72l248 411h-72zM373 0v1647h61v-1647h-61z" />
<glyph unicode="&#xce;" horiz-adv-x="536" d="M-193 1780l310 411h77l-309 -411h-78zM-23 1780l310 411h77l-309 -411h-78zM102 0v1647h62v-1647h-62zM238 0v1647h61v-1647h-61zM287 1966l39 51l178 -237h-78zM373 0v1647h61v-1647h-61zM373 2079l37 51l264 -350h-78z" />
<glyph unicode="&#xcf;" horiz-adv-x="536" d="M-207 1993q0 88 57.5 143t141.5 55q86 0 143.5 -55t57.5 -143t-57.5 -143.5t-143.5 -55.5q-84 0 -141.5 55.5t-57.5 143.5zM-145 1993q0 -61 40 -99.5t97 -38.5q59 0 99 38t40 100q0 63 -40 100t-99 37q-57 0 -97 -37t-40 -100zM102 0v1647h62v-1647h-62zM238 0v1647h61 v-1647h-61zM346 1993q0 88 57.5 143t141.5 55q86 0 143.5 -55t57.5 -143t-57.5 -143.5t-143.5 -55.5q-84 0 -141.5 55.5t-57.5 143.5zM373 0v1647h61v-1647h-61zM408 1993q0 -61 40 -99.5t97 -38.5q59 0 99 38t40 100q0 63 -40 100t-99 37q-57 0 -97 -37t-40 -100z" />
<glyph unicode="&#xd0;" horiz-adv-x="1753" d="M20 657v62h818v-62h-818zM20 793v61h818v-61h-818zM20 928v61h818v-61h-818zM205 0v584h61v-584h-61zM205 1063v584h61v-584h-61zM340 0v584h61v-584h-61zM340 1063v584h61v-584h-61zM475 0v584h62v-584h-62zM475 1063v584h62v-584h-62zM610 0v61h228q172 0 317 56.5 t250.5 159t164 241.5t58.5 305t-58.5 305.5t-164 242t-250.5 158.5t-317 56h-228v62h228q186 0 341.5 -60.5t270.5 -171t178.5 -261t63.5 -331.5q0 -180 -63.5 -330.5t-178.5 -261t-270.5 -171t-341.5 -60.5h-228zM610 135v62h228q193 0 340 79.5t231 222t84 324.5 q0 184 -84 325.5t-231.5 221.5t-339.5 80h-228v61h228q211 0 372.5 -88t253.5 -243.5t92 -356.5t-92 -356.5t-253.5 -243.5t-372.5 -88h-228zM610 270v62h228q156 0 271.5 61.5t181 173t65.5 256.5q0 147 -65.5 258t-181.5 172.5t-271 61.5h-228v61h228q172 0 303 -69.5 t204.5 -194.5t73.5 -289t-73.5 -288.5t-204.5 -194.5t-303 -70h-228z" />
<glyph unicode="&#xd1;" horiz-adv-x="1630" d="M102 0v1647h62v-1647h-62zM238 0v1647h61v-1647h-61zM373 0v1647h61v-1647h-61zM426 1792q0 111 58.5 174.5t154.5 63.5q70 0 114 -32t81 -69q35 -33 70.5 -60.5t87.5 -27.5q78 0 114.5 56.5t36.5 119.5h62q0 -111 -58.5 -174t-154.5 -63q-70 0 -115 30.5t-82 69.5 q-33 35 -67.5 61.5t-88.5 26.5q-76 0 -113.5 -55t-37.5 -121h-62zM508 975v108l614 -882v-109zM508 1212v109l614 -883v-108zM508 1450v109l614 -883v-109zM1196 0v1647h61v-1647h-61zM1331 0v1647h62v-1647h-62zM1466 0v1647h62v-1647h-62z" />
<glyph unicode="&#xd2;" horiz-adv-x="1830" d="M61 823q0 178 61.5 333t174.5 271.5t269.5 183t348.5 66.5q193 0 349.5 -66.5t269.5 -183t174 -271.5t61 -333t-61 -332.5t-174 -271.5t-269.5 -183.5t-349.5 -66.5t-349 66.5t-269 183.5t-174.5 271.5t-61.5 332.5zM123 823q0 -164 56.5 -308t160.5 -252.5t249.5 -170 t325.5 -61.5t325.5 61.5t250 170t161 252.5t56.5 308t-56.5 308.5t-161 253t-249.5 170t-326 61.5q-180 0 -325.5 -61.5t-249.5 -170t-160.5 -253t-56.5 -308.5zM197 823q0 150 50 280t145 229.5t227.5 154.5t295.5 55q164 0 296 -55t227.5 -154.5t145.5 -229.5t50 -280 t-50 -279.5t-145.5 -228t-227.5 -155t-296 -56.5t-296 56.5t-227 155t-145 228.5t-50 279zM258 823q0 -180 80 -329.5t228.5 -237.5t348.5 -88q203 0 350.5 88t227.5 237.5t80 329.5q0 182 -80 331t-227.5 237t-350.5 88q-201 0 -349 -88t-228 -236.5t-80 -331.5zM332 823 q0 162 69.5 294t200.5 211t313 79t313.5 -79t201 -211t69.5 -294q0 -160 -69.5 -293t-201 -211.5t-313.5 -78.5t-313 78.5t-200.5 212t-69.5 292.5zM393 823q0 -143 61.5 -261t179.5 -188.5t281 -70.5q166 0 283 70.5t178.5 188.5t61.5 261t-61.5 261t-178.5 188.5 t-283 70.5q-164 0 -281.5 -70.5t-179 -188t-61.5 -261.5zM561 2191h72l248 -411h-72zM719 2191h72l248 -411h-72z" />
<glyph unicode="&#xd3;" horiz-adv-x="1830" d="M61 823q0 178 61.5 333t174.5 271.5t269.5 183t348.5 66.5q193 0 349.5 -66.5t269.5 -183t174 -271.5t61 -333t-61 -332.5t-174 -271.5t-269.5 -183.5t-349.5 -66.5t-349 66.5t-269 183.5t-174.5 271.5t-61.5 332.5zM123 823q0 -164 56.5 -308t160.5 -252.5t249.5 -170 t325.5 -61.5t325.5 61.5t250 170t161 252.5t56.5 308t-56.5 308.5t-161 253t-249.5 170t-326 61.5q-180 0 -325.5 -61.5t-249.5 -170t-160.5 -253t-56.5 -308.5zM197 823q0 150 50 280t145 229.5t227.5 154.5t295.5 55q164 0 296 -55t227.5 -154.5t145.5 -229.5t50 -280 t-50 -279.5t-145.5 -228t-227.5 -155t-296 -56.5t-296 56.5t-227 155t-145 228.5t-50 279zM258 823q0 -180 80 -329.5t228.5 -237.5t348.5 -88q203 0 350.5 88t227.5 237.5t80 329.5q0 182 -80 331t-227.5 237t-350.5 88q-201 0 -349 -88t-228 -236.5t-80 -331.5zM332 823 q0 162 69.5 294t200.5 211t313 79t313.5 -79t201 -211t69.5 -294q0 -160 -69.5 -293t-201 -211.5t-313.5 -78.5t-313 78.5t-200.5 212t-69.5 292.5zM393 823q0 -143 61.5 -261t179.5 -188.5t281 -70.5q166 0 283 70.5t178.5 188.5t61.5 261t-61.5 261t-178.5 188.5 t-283 70.5q-164 0 -281.5 -70.5t-179 -188t-61.5 -261.5zM776 1780h72l248 411h-72zM934 1780h72l248 411h-72z" />
<glyph unicode="&#xd4;" horiz-adv-x="1830" d="M61 823q0 178 61.5 333t174.5 271.5t269.5 183t348.5 66.5q193 0 349.5 -66.5t269.5 -183t174 -271.5t61 -333t-61 -332.5t-174 -271.5t-269.5 -183.5t-349.5 -66.5t-349 66.5t-269 183.5t-174.5 271.5t-61.5 332.5zM123 823q0 -164 56.5 -308t160.5 -252.5t249.5 -170 t325.5 -61.5t325.5 61.5t250 170t161 252.5t56.5 308t-56.5 308.5t-161 253t-249.5 170t-326 61.5q-180 0 -325.5 -61.5t-249.5 -170t-160.5 -253t-56.5 -308.5zM197 823q0 150 50 280t145 229.5t227.5 154.5t295.5 55q164 0 296 -55t227.5 -154.5t145.5 -229.5t50 -280 t-50 -279.5t-145.5 -228t-227.5 -155t-296 -56.5t-296 56.5t-227 155t-145 228.5t-50 279zM258 823q0 -180 80 -329.5t228.5 -237.5t348.5 -88q203 0 350.5 88t227.5 237.5t80 329.5q0 182 -80 331t-227.5 237t-350.5 88q-201 0 -349 -88t-228 -236.5t-80 -331.5zM332 823 q0 162 69.5 294t200.5 211t313 79t313.5 -79t201 -211t69.5 -294q0 -160 -69.5 -293t-201 -211.5t-313.5 -78.5t-313 78.5t-200.5 212t-69.5 292.5zM393 823q0 -143 61.5 -261t179.5 -188.5t281 -70.5q166 0 283 70.5t178.5 188.5t61.5 261t-61.5 261t-178.5 188.5 t-283 70.5q-164 0 -281.5 -70.5t-179 -188t-61.5 -261.5zM454 1780l310 411h77l-309 -411h-78zM624 1780l310 411h77l-309 -411h-78zM934 1966l39 51l178 -237h-78zM1020 2079l37 51l264 -350h-78z" />
<glyph unicode="&#xd5;" horiz-adv-x="1830" d="M61 823q0 178 61.5 333t174.5 271.5t269.5 183t348.5 66.5q193 0 349.5 -66.5t269.5 -183t174 -271.5t61 -333t-61 -332.5t-174 -271.5t-269.5 -183.5t-349.5 -66.5t-349 66.5t-269 183.5t-174.5 271.5t-61.5 332.5zM123 823q0 -164 56.5 -308t160.5 -252.5t249.5 -170 t325.5 -61.5t325.5 61.5t250 170t161 252.5t56.5 308t-56.5 308.5t-161 253t-249.5 170t-326 61.5q-180 0 -325.5 -61.5t-249.5 -170t-160.5 -253t-56.5 -308.5zM197 823q0 150 50 280t145 229.5t227.5 154.5t295.5 55q164 0 296 -55t227.5 -154.5t145.5 -229.5t50 -280 t-50 -279.5t-145.5 -228t-227.5 -155t-296 -56.5t-296 56.5t-227 155t-145 228.5t-50 279zM258 823q0 -180 80 -329.5t228.5 -237.5t348.5 -88q203 0 350.5 88t227.5 237.5t80 329.5q0 182 -80 331t-227.5 237t-350.5 88q-201 0 -349 -88t-228 -236.5t-80 -331.5zM332 823 q0 162 69.5 294t200.5 211t313 79t313.5 -79t201 -211t69.5 -294q0 -160 -69.5 -293t-201 -211.5t-313.5 -78.5t-313 78.5t-200.5 212t-69.5 292.5zM393 823q0 -143 61.5 -261t179.5 -188.5t281 -70.5q166 0 283 70.5t178.5 188.5t61.5 261t-61.5 261t-178.5 188.5 t-283 70.5q-164 0 -281.5 -70.5t-179 -188t-61.5 -261.5zM526 1792q0 111 58.5 174.5t154.5 63.5q70 0 114 -32t81 -69q35 -33 70.5 -60.5t87.5 -27.5q78 0 114.5 56.5t36.5 119.5h62q0 -111 -58.5 -174t-154.5 -63q-70 0 -115 30.5t-82 69.5q-33 35 -67.5 61.5t-88.5 26.5 q-76 0 -113.5 -55t-37.5 -121h-62z" />
<glyph unicode="&#xd6;" horiz-adv-x="1830" d="M61 823q0 178 61.5 333t174.5 271.5t269.5 183t348.5 66.5q193 0 349.5 -66.5t269.5 -183t174 -271.5t61 -333t-61 -332.5t-174 -271.5t-269.5 -183.5t-349.5 -66.5t-349 66.5t-269 183.5t-174.5 271.5t-61.5 332.5zM123 823q0 -164 56.5 -308t160.5 -252.5t249.5 -170 t325.5 -61.5t325.5 61.5t250 170t161 252.5t56.5 308t-56.5 308.5t-161 253t-249.5 170t-326 61.5q-180 0 -325.5 -61.5t-249.5 -170t-160.5 -253t-56.5 -308.5zM197 823q0 150 50 280t145 229.5t227.5 154.5t295.5 55q164 0 296 -55t227.5 -154.5t145.5 -229.5t50 -280 t-50 -279.5t-145.5 -228t-227.5 -155t-296 -56.5t-296 56.5t-227 155t-145 228.5t-50 279zM258 823q0 -180 80 -329.5t228.5 -237.5t348.5 -88q203 0 350.5 88t227.5 237.5t80 329.5q0 182 -80 331t-227.5 237t-350.5 88q-201 0 -349 -88t-228 -236.5t-80 -331.5zM332 823 q0 162 69.5 294t200.5 211t313 79t313.5 -79t201 -211t69.5 -294q0 -160 -69.5 -293t-201 -211.5t-313.5 -78.5t-313 78.5t-200.5 212t-69.5 292.5zM393 823q0 -143 61.5 -261t179.5 -188.5t281 -70.5q166 0 283 70.5t178.5 188.5t61.5 261t-61.5 261t-178.5 188.5 t-283 70.5q-164 0 -281.5 -70.5t-179 -188t-61.5 -261.5zM440 1993q0 88 57.5 143t141.5 55q86 0 143.5 -55t57.5 -143t-57.5 -143.5t-143.5 -55.5q-84 0 -141.5 55.5t-57.5 143.5zM502 1993q0 -61 40 -99.5t97 -38.5q59 0 99 38t40 100q0 63 -40 100t-99 37q-57 0 -97 -37 t-40 -100zM993 1993q0 88 57.5 143t141.5 55q86 0 143.5 -55t57.5 -143t-57.5 -143.5t-143.5 -55.5q-84 0 -141.5 55.5t-57.5 143.5zM1055 1993q0 -61 40 -99.5t97 -38.5q59 0 99 38t40 100q0 63 -40 100t-99 37q-57 0 -97 -37t-40 -100z" />
<glyph unicode="&#xd7;" horiz-adv-x="757" d="M82 555l43 45l106 -106l-43 -43zM96 254l426 426l43 -43l-426 -426zM178 651l43 43l107 -104l-45 -43zM193 160l425 426l44 -45l-426 -424zM430 207l45 43l105 -105l-43 -45zM526 303l43 43l107 -106l-43 -43z" />
<glyph unicode="&#xd8;" horiz-adv-x="1830" d="M61 823q0 178 61.5 333t174.5 271.5t269.5 183t348.5 66.5q190 0 347 -65l-37 -51q-70 27 -148 41t-162 14q-180 0 -325.5 -61.5t-249.5 -170t-160.5 -253t-56.5 -308.5q0 -119 29.5 -227.5t85.5 -200.5l-39 -55q-66 102 -102 225t-36 258zM164 160l538 770l52 -35 l-539 -770zM197 823q0 150 50 280t145 229.5t227.5 154.5t295.5 55q72 0 139.5 -11t125.5 -34l-39 -53q-104 35 -226 35q-201 0 -349 -88t-228 -236.5t-80 -331.5q0 -166 68 -305l-41 -55q-88 160 -88 360zM274 82l1123 1595l51 -35l-1122 -1595zM332 823q0 162 69.5 294 t200.5 211t313 79q98 0 185 -25l-41 -55q-33 8 -69 12t-75 4q-164 0 -281.5 -70.5t-179 -188t-61.5 -261.5q0 -90 25 -174l-43 -61q-43 109 -43 235zM385 6l1122 1593l52 -34l-1123 -1596zM569 35l37 51q70 -27 147.5 -41t161.5 -14q180 0 325.5 61.5t250 170t161 252.5 t56.5 308q0 119 -29.5 227.5t-85.5 200.5l39 56q66 -102 101.5 -225.5t35.5 -258.5q0 -178 -61 -332.5t-174 -271.5t-269.5 -183.5t-349.5 -66.5q-190 0 -346 66zM651 150l39 53q104 -35 225 -35q203 0 350.5 88t227.5 237.5t80 329.5q0 168 -68 305l41 56q88 -160 88 -361 q0 -150 -50 -279.5t-145.5 -228t-227.5 -155t-296 -56.5q-72 0 -138 12.5t-126 33.5zM731 264l41 55q35 -8 70 -12t73 -4q166 0 283 70.5t178.5 188.5t61.5 261q0 92 -25 174l43 62q43 -106 43 -236q0 -160 -69.5 -293t-201 -211.5t-313.5 -78.5q-98 0 -184 24zM1071 750 l547 772l51 -35l-547 -772z" />
<glyph unicode="&#xd9;" horiz-adv-x="1437" d="M102 588v1059h62v-1059q0 -154 66.5 -281t190.5 -201.5t298 -74.5t298 74.5t190.5 201.5t66.5 281v1059h61v-1059q0 -170 -74.5 -311.5t-211.5 -224.5t-330 -83q-190 0 -328.5 83t-213.5 224.5t-75 311.5zM238 588v1059h61v-1059q0 -117 48 -212t142.5 -152.5 t229.5 -57.5q137 0 230 57.5t141.5 152.5t48.5 212v1059h61v-1059q0 -133 -56.5 -242.5t-163.5 -175.5t-261 -66t-261.5 66t-163.5 175.5t-56 242.5zM338 2189h72l248 -411h-72zM373 588v1059h61v-1059q0 -119 67.5 -203t217.5 -84t217.5 84t67.5 203v1059h61v-1059 q0 -96 -38 -175t-114.5 -126t-193.5 -47t-193.5 47t-114.5 126t-38 175zM496 2189h72l248 -411h-72z" />
<glyph unicode="&#xda;" horiz-adv-x="1437" d="M102 588v1059h62v-1059q0 -154 66.5 -281t190.5 -201.5t298 -74.5t298 74.5t190.5 201.5t66.5 281v1059h61v-1059q0 -170 -74.5 -311.5t-211.5 -224.5t-330 -83q-190 0 -328.5 83t-213.5 224.5t-75 311.5zM238 588v1059h61v-1059q0 -117 48 -212t142.5 -152.5 t229.5 -57.5q137 0 230 57.5t141.5 152.5t48.5 212v1059h61v-1059q0 -133 -56.5 -242.5t-163.5 -175.5t-261 -66t-261.5 66t-163.5 175.5t-56 242.5zM373 588v1059h61v-1059q0 -119 67.5 -203t217.5 -84t217.5 84t67.5 203v1059h61v-1059q0 -96 -38 -175t-114.5 -126 t-193.5 -47t-193.5 47t-114.5 126t-38 175zM612 1780h72l248 411h-72zM770 1780h72l248 411h-72z" />
<glyph unicode="&#xdb;" horiz-adv-x="1437" d="M102 588v1059h62v-1059q0 -154 66.5 -281t190.5 -201.5t298 -74.5t298 74.5t190.5 201.5t66.5 281v1059h61v-1059q0 -170 -74.5 -311.5t-211.5 -224.5t-330 -83q-190 0 -328.5 83t-213.5 224.5t-75 311.5zM238 588v1059h61v-1059q0 -117 48 -212t142.5 -152.5 t229.5 -57.5q137 0 230 57.5t141.5 152.5t48.5 212v1059h61v-1059q0 -133 -56.5 -242.5t-163.5 -175.5t-261 -66t-261.5 66t-163.5 175.5t-56 242.5zM258 1780l310 411h77l-309 -411h-78zM373 588v1059h61v-1059q0 -119 67.5 -203t217.5 -84t217.5 84t67.5 203v1059h61 v-1059q0 -96 -38 -175t-114.5 -126t-193.5 -47t-193.5 47t-114.5 126t-38 175zM428 1780l310 411h77l-309 -411h-78zM738 1966l39 51l178 -237h-78zM824 2079l37 51l264 -350h-78z" />
<glyph unicode="&#xdc;" horiz-adv-x="1437" d="M102 588v1059h62v-1059q0 -154 66.5 -281t190.5 -201.5t298 -74.5t298 74.5t190.5 201.5t66.5 281v1059h61v-1059q0 -170 -74.5 -311.5t-211.5 -224.5t-330 -83q-190 0 -328.5 83t-213.5 224.5t-75 311.5zM238 588v1059h61v-1059q0 -117 48 -212t142.5 -152.5 t229.5 -57.5q137 0 230 57.5t141.5 152.5t48.5 212v1059h61v-1059q0 -133 -56.5 -242.5t-163.5 -175.5t-261 -66t-261.5 66t-163.5 175.5t-56 242.5zM243 1993q0 88 57.5 143t141.5 55q86 0 143.5 -55t57.5 -143t-57.5 -143.5t-143.5 -55.5q-84 0 -141.5 55.5t-57.5 143.5z M305 1993q0 -61 40 -99.5t97 -38.5q59 0 99 38t40 100q0 63 -40 100t-99 37q-57 0 -97 -37t-40 -100zM373 588v1059h61v-1059q0 -119 67.5 -203t217.5 -84t217.5 84t67.5 203v1059h61v-1059q0 -96 -38 -175t-114.5 -126t-193.5 -47t-193.5 47t-114.5 126t-38 175zM796 1993 q0 88 57.5 143t141.5 55q86 0 143.5 -55t57.5 -143t-57.5 -143.5t-143.5 -55.5q-84 0 -141.5 55.5t-57.5 143.5zM858 1993q0 -61 40 -99.5t97 -38.5q59 0 99 38t40 100q0 63 -40 100t-99 37q-57 0 -97 -37t-40 -100z" />
<glyph unicode="&#xdd;" horiz-adv-x="1574" d="M23 1647h73l568 -871h-74zM184 1647h74l567 -871h-71zM346 1647h74l569 -871h-76zM623 0v700h61v-700h-61zM665 1780h72l248 411h-72zM758 0v700h61v-700h-61zM823 1780h72l248 411h-72zM829 1155l328 492h74l-363 -549zM893 0v700h61v-700h-61zM913 1030l406 617h74 l-443 -676zM993 903l488 744h73l-522 -801z" />
<glyph unicode="&#xde;" horiz-adv-x="1521" d="M102 0v1647h62v-1647h-62zM238 0v1647h61v-1647h-61zM373 0v1647h61v-1647h-61zM508 375v61h481q117 0 212 51.5t151.5 145.5t56.5 221t-56.5 221t-151.5 145.5t-212 51.5h-481v61h481q133 0 242.5 -60.5t174 -168t64.5 -250.5t-64.5 -250.5t-174 -168t-242.5 -60.5h-481 zM508 510v61h481q119 0 202 75t83 208t-83 208t-202 75h-481v61h481q96 0 174 -42t125 -118.5t47 -183.5q0 -106 -47 -183t-125 -119t-174 -42h-481zM508 645v62h481q61 0 105.5 35.5t44.5 111.5q0 78 -44 112.5t-106 34.5h-481v62h481q88 0 149.5 -53.5t61.5 -155.5 t-61.5 -155.5t-149.5 -53.5h-481z" />
<glyph unicode="&#xdf;" horiz-adv-x="868" d="M82 0v571q0 119 72.5 185.5t173.5 66.5h192q102 -2 173 -68.5t71 -183.5q0 -70 -29 -127q70 -70 70 -184q0 -125 -73 -192.5t-175 -67.5h-180v61h180q78 0 132 49.5t54 149.5q0 96 -54 145.5t-132 49.5h-145v61h137q8 10 13 23.5t5 31.5q0 29 -14 42.5t-37 13.5h-186 q-20 0 -35.5 -13.5t-15.5 -42.5v-571h-62v571q0 53 31 85t80 32h192q49 -2 79 -33.5t30 -83.5q0 -35 -15 -61q39 -8 72 -27q16 39 16 88q0 94 -54 142.5t-132 48.5h-186q-76 0 -131.5 -48t-55.5 -143v-571h-61zM377 135v62h180q23 0 37 14t14 49q0 33 -14 46t-37 13h-145v62 h145q51 0 82 -33t31 -88q0 -57 -31 -91t-82 -34h-180z" />
<glyph unicode="&#xe0;" horiz-adv-x="847" d="M20 0l299 823h66l-299 -823h-66zM164 0l299 823h65l299 -823h-65l-266 733l-39 -106l227 -627h-66l-34 98h-320l-35 -98h-65zM280 1167h72l123 -204h-72zM287 160h274l-26 73h-222zM336 295h176l-88 242z" />
<glyph unicode="&#xe1;" horiz-adv-x="847" d="M20 0l299 823h66l-299 -823h-66zM164 0l299 823h65l299 -823h-65l-266 733l-39 -106l227 -627h-66l-34 98h-320l-35 -98h-65zM287 160h274l-26 73h-222zM336 295h176l-88 242zM422 963h72l123 204h-72z" />
<glyph unicode="&#xe2;" horiz-adv-x="847" d="M20 0l299 823h66l-299 -823h-66zM164 0l299 823h65l299 -823h-65l-266 733l-39 -106l227 -627h-66l-34 98h-320l-35 -98h-65zM213 963l164 204h78l-164 -204h-78zM287 160h274l-26 73h-222zM336 295h176l-88 242zM463 1059l39 49l117 -145h-80z" />
<glyph unicode="&#xe3;" horiz-adv-x="847" d="M20 0l299 823h66l-299 -823h-66zM164 0l299 823h65l299 -823h-65l-266 733l-39 -106l227 -627h-66l-34 98h-320l-35 -98h-65zM196 969q0 59 38 95t100 36q29 0 53 -10.5t57 -34.5q29 -20 46.5 -28.5t37.5 -8.5q35 0 55.5 19.5t20.5 49.5h61q0 -57 -39 -94t-100 -37 q-53 0 -110 45q-27 23 -45.5 30t-36.5 7q-35 0 -55.5 -19.5t-20.5 -49.5h-62zM287 160h274l-26 73h-222zM336 295h176l-88 242z" />
<glyph unicode="&#xe4;" horiz-adv-x="847" d="M20 0l299 823h66l-299 -823h-66zM164 0l299 823h65l299 -823h-65l-266 733l-39 -106l227 -627h-66l-34 98h-320l-35 -98h-65zM239 1065q0 29 20.5 48.5t47.5 19.5q29 0 49.5 -19.5t20.5 -48.5t-20.5 -48.5t-49.5 -19.5q-27 0 -47.5 19.5t-20.5 48.5zM287 160h274l-26 73 h-222zM336 295h176l-88 242zM485 1065q0 29 20.5 48.5t47.5 19.5q29 0 49 -19.5t20 -48.5t-20 -48.5t-49 -19.5q-27 0 -47.5 19.5t-20.5 48.5z" />
<glyph unicode="&#xe5;" horiz-adv-x="847" d="M20 0l299 823h66l-299 -823h-66zM164 0l299 823h65l299 -823h-65l-266 733l-39 -106l227 -627h-66l-34 98h-320l-35 -98h-65zM287 160h274l-26 73h-222zM317 1069q0 51 33 83t82 32t82 -32t33 -83t-33 -83t-82 -32t-82 32t-33 83zM336 295h176l-88 242zM369 1069 q0 -27 18 -45t45 -18t45.5 18t18.5 45q0 29 -17.5 45t-46.5 16q-27 0 -45 -16t-18 -45z" />
<glyph unicode="&#xe6;" horiz-adv-x="1214" d="M20 0l443 823h67l-440 -823h-70zM174 0l447 823h557v-61h-486l8 -74h478v-61h-469l12 -117h391v-61h-385l10 -74h375v-62h-369l13 -116h422v-62h-414l8 -74h406v-61h-461l-82 729l-62 -115l70 -614h-63l-15 135h-250l-71 -135h-70zM350 197h207l-35 321z" />
<glyph unicode="&#xe7;" horiz-adv-x="913" d="M61 412q0 123 59.5 220t160 154.5t225.5 57.5q106 0 196.5 -43t149.5 -115l-47 -37q-51 61 -129 97t-170 36q-109 0 -196 -49t-137 -132t-50 -189q0 -104 50 -188.5t137 -133.5t196 -49q92 0 170 36t129 97l47 -37q-59 -72 -149.5 -114.5t-196.5 -42.5q-125 0 -225.5 57 t-160 155.5t-59.5 219.5zM197 412q0 84 41 151.5t110.5 106.5t157.5 39q74 0 136.5 -29t102.5 -78l-49 -37q-70 82 -190 82q-106 0 -177 -66.5t-71 -168.5q0 -100 70.5 -168t177.5 -68q121 0 190 82l49 -37q-41 -49 -103 -77.5t-136 -28.5q-88 0 -157.5 39t-110.5 106.5 t-41 151.5zM315 -297l45 39q47 -37 113 -37q51 0 81 20.5t30 59.5q0 70 -86 70q-27 0 -54.5 -8.5t-44.5 -24.5l-51 31l92 147h76l-63 -94q27 10 57 10q53 0 94 -31.5t41 -97.5q0 -70 -48 -106.5t-118 -36.5q-47 0 -91 16t-73 43z" />
<glyph unicode="&#xe8;" horiz-adv-x="743" d="M82 0v823h61v-823h-61zM217 0v823h490v-61h-428v-74h428v-61h-428v-117h362v-61h-362v-74h362v-62h-362v-116h428v-62h-428v-74h428v-61h-490zM268 1167h72l123 -204h-72z" />
<glyph unicode="&#xe9;" horiz-adv-x="743" d="M82 0v823h61v-823h-61zM217 0v823h490v-61h-428v-74h428v-61h-428v-117h362v-61h-362v-74h362v-62h-362v-116h428v-62h-428v-74h428v-61h-490zM412 963h72l123 204h-72z" />
<glyph unicode="&#xea;" horiz-adv-x="743" d="M82 0v823h61v-823h-61zM206 963l164 204h78l-164 -204h-78zM217 0v823h490v-61h-428v-74h428v-61h-428v-117h362v-61h-362v-74h362v-62h-362v-116h428v-62h-428v-74h428v-61h-490zM456 1059l39 49l117 -145h-80z" />
<glyph unicode="&#xeb;" horiz-adv-x="743" d="M82 0v823h61v-823h-61zM217 0v823h490v-61h-428v-74h428v-61h-428v-117h362v-61h-362v-74h362v-62h-362v-116h428v-62h-428v-74h428v-61h-490zM233 1065q0 29 20.5 48.5t47.5 19.5q29 0 49.5 -19.5t20.5 -48.5t-20.5 -48.5t-49.5 -19.5q-27 0 -47.5 19.5t-20.5 48.5z M479 1065q0 29 20.5 48.5t47.5 19.5q29 0 49 -19.5t20 -48.5t-20 -48.5t-49 -19.5q-27 0 -47.5 19.5t-20.5 48.5z" />
<glyph unicode="&#xec;" d="M22 1167h72l123 -204h-72zM82 0v823h61v-823h-61zM217 0v823h62v-823h-62z" />
<glyph unicode="&#xed;" d="M82 0v823h61v-823h-61zM166 963h72l123 204h-72zM217 0v823h62v-823h-62z" />
<glyph unicode="&#xee;" d="M-39 963l164 204h78l-164 -204h-78zM82 0v823h61v-823h-61zM211 1059l39 49l117 -145h-80zM217 0v823h62v-823h-62z" />
<glyph unicode="&#xef;" d="M-13 1065q0 29 20.5 48.5t47.5 19.5q29 0 49.5 -19.5t20.5 -48.5t-20.5 -48.5t-49.5 -19.5q-27 0 -47.5 19.5t-20.5 48.5zM82 0v823h61v-823h-61zM217 0v823h62v-823h-62zM233 1065q0 29 20.5 48.5t47.5 19.5q29 0 49 -19.5t20 -48.5t-20 -48.5t-49 -19.5 q-27 0 -47.5 19.5t-20.5 48.5z" />
<glyph unicode="&#xf0;" horiz-adv-x="931" d="M10 385v61h383v-61h-383zM92 0v311h62v-311h-62zM92 520v303h62v-303h-62zM227 0v311h62v-114h137q115 0 181.5 57t66.5 158q0 100 -66.5 157.5t-181.5 57.5h-137v-107h-62v303h205q129 -2 227.5 -55t154.5 -145.5t56 -210.5q0 -119 -56 -212.5t-155.5 -146.5t-226.5 -53 h-205zM289 61h137q115 0 201 44.5t134 124t48 182.5q0 104 -48 183t-134 123t-201 44h-137v-74h143q135 -2 219 -77.5t84 -198.5q0 -125 -85 -201t-218 -76h-143v-74z" />
<glyph unicode="&#xf1;" horiz-adv-x="909" d="M82 0v823h61v-823h-61zM217 0v823h62l352 -489v489h61v-823h-61l-352 489v-489h-62zM219 969q0 59 38 95t100 36q29 0 53 -10.5t57 -34.5q29 -20 46.5 -28.5t37.5 -8.5q35 0 55.5 19.5t20.5 49.5h61q0 -57 -39 -94t-100 -37q-53 0 -110 45q-27 23 -45.5 30t-36.5 7 q-35 0 -55.5 -19.5t-20.5 -49.5h-62zM279 594l352 -490v125l-352 490v-125zM766 0v823h61v-823h-61z" />
<glyph unicode="&#xf2;" horiz-adv-x="1011" d="M61 412q0 123 59.5 220t160 154.5t225.5 57.5t225 -57.5t159.5 -154.5t59.5 -220q0 -121 -59.5 -219.5t-159.5 -155.5t-225 -57t-225.5 57t-160 155.5t-59.5 219.5zM123 412q0 -104 50 -188.5t137 -133.5t196 -49t195.5 49t137 133.5t50.5 188.5q0 106 -50.5 189 t-137.5 132t-195 49q-109 0 -196 -49t-137 -132t-50 -189zM197 412q0 84 41 151.5t110.5 106.5t157.5 39t157.5 -39t110.5 -106.5t41 -151.5t-41 -151.5t-110.5 -106.5t-157.5 -39t-157.5 39t-110.5 106.5t-41 151.5zM258 412q0 -100 70.5 -168t177.5 -68q106 0 177 68 t71 168q0 102 -71 168.5t-177 66.5t-177 -66.5t-71 -168.5zM348 1167h72l123 -204h-72z" />
<glyph unicode="&#xf3;" horiz-adv-x="1011" d="M61 412q0 123 59.5 220t160 154.5t225.5 57.5t225 -57.5t159.5 -154.5t59.5 -220q0 -121 -59.5 -219.5t-159.5 -155.5t-225 -57t-225.5 57t-160 155.5t-59.5 219.5zM123 412q0 -104 50 -188.5t137 -133.5t196 -49t195.5 49t137 133.5t50.5 188.5q0 106 -50.5 189 t-137.5 132t-195 49q-109 0 -196 -49t-137 -132t-50 -189zM197 412q0 84 41 151.5t110.5 106.5t157.5 39t157.5 -39t110.5 -106.5t41 -151.5t-41 -151.5t-110.5 -106.5t-157.5 -39t-157.5 39t-110.5 106.5t-41 151.5zM258 412q0 -100 70.5 -168t177.5 -68q106 0 177 68 t71 168q0 102 -71 168.5t-177 66.5t-177 -66.5t-71 -168.5zM471 963h72l123 204h-72z" />
<glyph unicode="&#xf4;" horiz-adv-x="1011" d="M61 412q0 123 59.5 220t160 154.5t225.5 57.5t225 -57.5t159.5 -154.5t59.5 -220q0 -121 -59.5 -219.5t-159.5 -155.5t-225 -57t-225.5 57t-160 155.5t-59.5 219.5zM123 412q0 -104 50 -188.5t137 -133.5t196 -49t195.5 49t137 133.5t50.5 188.5q0 106 -50.5 189 t-137.5 132t-195 49q-109 0 -196 -49t-137 -132t-50 -189zM197 412q0 84 41 151.5t110.5 106.5t157.5 39t157.5 -39t110.5 -106.5t41 -151.5t-41 -151.5t-110.5 -106.5t-157.5 -39t-157.5 39t-110.5 106.5t-41 151.5zM258 412q0 -100 70.5 -168t177.5 -68q106 0 177 68 t71 168q0 102 -71 168.5t-177 66.5t-177 -66.5t-71 -168.5zM286 963l164 204h78l-164 -204h-78zM536 1059l39 49l117 -145h-80z" />
<glyph unicode="&#xf5;" horiz-adv-x="1011" d="M61 412q0 123 59.5 220t160 154.5t225.5 57.5t225 -57.5t159.5 -154.5t59.5 -220q0 -121 -59.5 -219.5t-159.5 -155.5t-225 -57t-225.5 57t-160 155.5t-59.5 219.5zM123 412q0 -104 50 -188.5t137 -133.5t196 -49t195.5 49t137 133.5t50.5 188.5q0 106 -50.5 189 t-137.5 132t-195 49q-109 0 -196 -49t-137 -132t-50 -189zM197 412q0 84 41 151.5t110.5 106.5t157.5 39t157.5 -39t110.5 -106.5t41 -151.5t-41 -151.5t-110.5 -106.5t-157.5 -39t-157.5 39t-110.5 106.5t-41 151.5zM258 412q0 -100 70.5 -168t177.5 -68q106 0 177 68 t71 168q0 102 -71 168.5t-177 66.5t-177 -66.5t-71 -168.5zM270 969q0 59 38 95t100 36q29 0 53 -10.5t57 -34.5q29 -20 46.5 -28.5t37.5 -8.5q35 0 55.5 19.5t20.5 49.5h61q0 -57 -39 -94t-100 -37q-53 0 -110 45q-27 23 -45.5 30t-36.5 7q-35 0 -55.5 -19.5t-20.5 -49.5 h-62z" />
<glyph unicode="&#xf6;" horiz-adv-x="1011" d="M61 412q0 123 59.5 220t160 154.5t225.5 57.5t225 -57.5t159.5 -154.5t59.5 -220q0 -121 -59.5 -219.5t-159.5 -155.5t-225 -57t-225.5 57t-160 155.5t-59.5 219.5zM123 412q0 -104 50 -188.5t137 -133.5t196 -49t195.5 49t137 133.5t50.5 188.5q0 106 -50.5 189 t-137.5 132t-195 49q-109 0 -196 -49t-137 -132t-50 -189zM197 412q0 84 41 151.5t110.5 106.5t157.5 39t157.5 -39t110.5 -106.5t41 -151.5t-41 -151.5t-110.5 -106.5t-157.5 -39t-157.5 39t-110.5 106.5t-41 151.5zM258 412q0 -100 70.5 -168t177.5 -68q106 0 177 68 t71 168q0 102 -71 168.5t-177 66.5t-177 -66.5t-71 -168.5zM313 1065q0 29 20.5 48.5t47.5 19.5q29 0 49.5 -19.5t20.5 -48.5t-20.5 -48.5t-49.5 -19.5q-27 0 -47.5 19.5t-20.5 48.5zM559 1065q0 29 20.5 48.5t47.5 19.5q29 0 49 -19.5t20 -48.5t-20 -48.5t-49 -19.5 q-27 0 -47.5 19.5t-20.5 48.5z" />
<glyph unicode="&#xf7;" horiz-adv-x="856" d="M82 303v62h692v-62h-692zM82 438v62h692v-62h-692zM336 137q0 39 27.5 65.5t66.5 26.5t67.5 -26.5t28.5 -65.5t-28.5 -67.5t-67.5 -28.5t-66.5 28.5t-27.5 67.5zM336 670q0 39 27.5 65.5t66.5 26.5t67.5 -26.5t28.5 -65.5t-28.5 -68t-67.5 -29t-66.5 29t-27.5 68z M387 137q0 -16 13.5 -29.5t29.5 -13.5q18 0 31.5 13.5t13.5 29.5t-13 29.5t-32 13.5q-16 0 -29.5 -13t-13.5 -30zM387 670q0 -16 13.5 -29.5t29.5 -13.5q18 0 31.5 13t13.5 30q0 16 -13 29.5t-32 13.5q-16 0 -29.5 -13.5t-13.5 -29.5z" />
<glyph unicode="&#xf8;" horiz-adv-x="1011" d="M61 412q0 123 59.5 220t160 154.5t225.5 57.5q109 0 194 -43l-41 -47q-74 29 -153 28q-109 0 -196 -49t-137 -132t-50 -189q0 -57 16.5 -109.5t42.5 -95.5l-41 -47q-80 113 -80 252zM129 31l709 813l47 -41l-709 -813zM197 412q0 84 41 151.5t110.5 106.5t157.5 39 q27 0 52.5 -4.5t47.5 -10.5l-45 -53q-27 6 -55 6q-106 0 -177 -66.5t-71 -168.5q0 -55 21 -97l-43 -49q-39 68 -39 146zM305 25l41 47q72 -31 160 -31q109 0 195.5 49t137 133t50.5 189q0 59 -17.5 112.5t-48.5 98.5l41 47q86 -111 86 -258q0 -121 -59.5 -219.5 t-159.5 -155.5t-225 -57q-106 0 -201 45zM397 133l45 51q27 -8 64 -8q106 0 177 67.5t71 168.5q0 53 -23 102l43 49q41 -66 41 -151q0 -84 -41 -151.5t-110.5 -106.5t-157.5 -39q-59 0 -109 18z" />
<glyph unicode="&#xf9;" horiz-adv-x="819" d="M82 307v516h61v-514q0 -131 79 -199.5t188 -68.5t187.5 68.5t78.5 199.5v514h61v-516q-2 -104 -46 -177t-117.5 -111.5t-163.5 -38.5t-165 38.5t-119 112.5t-44 176zM217 307v516h62v-514q0 -70 38.5 -101.5t92.5 -31.5q53 0 92 32t39 101v514h61v-516q-2 -96 -58.5 -144 t-133.5 -48q-78 0 -135.5 49t-57.5 143zM252 1167h72l123 -204h-72z" />
<glyph unicode="&#xfa;" horiz-adv-x="819" d="M82 307v516h61v-514q0 -131 79 -199.5t188 -68.5t187.5 68.5t78.5 199.5v514h61v-516q-2 -104 -46 -177t-117.5 -111.5t-163.5 -38.5t-165 38.5t-119 112.5t-44 176zM217 307v516h62v-514q0 -70 38.5 -101.5t92.5 -31.5q53 0 92 32t39 101v514h61v-516q-2 -96 -58.5 -144 t-133.5 -48q-78 0 -135.5 49t-57.5 143zM375 963h72l123 204h-72z" />
<glyph unicode="&#xfb;" horiz-adv-x="819" d="M82 307v516h61v-514q0 -131 79 -199.5t188 -68.5t187.5 68.5t78.5 199.5v514h61v-516q-2 -104 -46 -177t-117.5 -111.5t-163.5 -38.5t-165 38.5t-119 112.5t-44 176zM190 963l164 204h78l-164 -204h-78zM217 307v516h62v-514q0 -70 38.5 -101.5t92.5 -31.5q53 0 92 32 t39 101v514h61v-516q-2 -96 -58.5 -144t-133.5 -48q-78 0 -135.5 49t-57.5 143zM440 1059l39 49l117 -145h-80z" />
<glyph unicode="&#xfc;" horiz-adv-x="819" d="M82 307v516h61v-514q0 -131 79 -199.5t188 -68.5t187.5 68.5t78.5 199.5v514h61v-516q-2 -104 -46 -177t-117.5 -111.5t-163.5 -38.5t-165 38.5t-119 112.5t-44 176zM217 307v516h62v-514q0 -70 38.5 -101.5t92.5 -31.5q53 0 92 32t39 101v514h61v-516q-2 -96 -58.5 -144 t-133.5 -48q-78 0 -135.5 49t-57.5 143zM217 1065q0 29 20.5 48.5t47.5 19.5q29 0 49.5 -19.5t20.5 -48.5t-20.5 -48.5t-49.5 -19.5q-27 0 -47.5 19.5t-20.5 48.5zM463 1065q0 29 20.5 48.5t47.5 19.5q29 0 49 -19.5t20 -48.5t-20 -48.5t-49 -19.5q-27 0 -47.5 19.5 t-20.5 48.5z" />
<glyph unicode="&#xfd;" horiz-adv-x="864" d="M20 823h76l291 -424h-76zM186 823h76l170 -248l170 248h76l-207 -305l43 -63l254 368h76l-291 -424h-76zM334 0v350h61v-350h-61zM397 963h72l123 204h-72zM469 0v350h61v-350h-61z" />
<glyph unicode="&#xfe;" horiz-adv-x="843" d="M82 0v823h61v-823h-61zM217 0v823h62v-149h260q100 -2 171.5 -68.5t71.5 -183.5q0 -119 -71.5 -185.5t-171.5 -66.5h-260v-170h-62zM279 231h256q78 0 132 48.5t54 142.5t-54 142t-132 48h-256v-73h260q49 -2 78.5 -34t29.5 -83t-30.5 -84t-77.5 -33h-260v-74zM279 367 h256q23 0 37 13t14 42t-14 42t-37 13h-256v-110z" />
<glyph unicode="&#xff;" horiz-adv-x="864" d="M20 823h76l291 -424h-76zM186 823h76l170 -248l170 248h76l-207 -305l43 -63l254 368h76l-291 -424h-76zM239 1065q0 29 20.5 48.5t47.5 19.5q29 0 49.5 -19.5t20.5 -48.5t-20.5 -48.5t-49.5 -19.5q-27 0 -47.5 19.5t-20.5 48.5zM334 0v350h61v-350h-61zM469 0v350h61 v-350h-61zM485 1065q0 29 20.5 48.5t47.5 19.5q29 0 49 -19.5t20 -48.5t-20 -48.5t-49 -19.5q-27 0 -47.5 19.5t-20.5 48.5z" />
<glyph unicode="&#x152;" horiz-adv-x="2500" d="M62 823q0 -180 63.5 -330.5t178 -261t270 -171t342.5 -60.5h227v61h-225q-174 0 -318.5 56.5t-251 159t-165 241.5t-58.5 305t58.5 305.5t165 242t251 158.5t318.5 56h225v62h-227q-186 0 -342 -61.5t-270.5 -172t-178 -260t-63.5 -330.5zM197 823q0 -201 92 -356.5 t254 -243.5t373 -88h227v62h-225q-195 0 -342.5 79.5t-231.5 222t-84 324.5q0 184 84 325.5t231.5 221.5t342.5 80h225v61h-227q-211 0 -373 -89t-254 -243.5t-92 -355.5zM334 823q0 -164 74 -288.5t205 -194.5t303 -70h227v62h-225q-156 0 -272.5 61.5t-182 173 t-65.5 256.5q0 147 65.5 258t182 172.5t272.5 61.5h225v61h-227q-172 0 -303 -70.5t-205 -194.5t-74 -288zM1216 0v1647h62v-1647h-62zM1217 0h61v1647h-61v-1647zM1352 0v1647h61v-1647h-61zM1352 0h61v1647h-61v-1647zM1487 0v1647h61v-1647h-61zM1487 0h62v1647h-62 v-1647zM1622 0v61h817v-61h-817zM1622 135v62h817v-62h-817zM1622 270v62h817v-62h-817zM1622 657v62h700v-62h-700zM1622 793v61h700v-61h-700zM1622 928v61h700v-61h-700zM1622 1315v61h817v-61h-817zM1622 1450v61h817v-61h-817zM1622 1585v62h817v-62h-817z" />
<glyph unicode="&#x153;" horiz-adv-x="1304" d="M62 412q0 -119 56 -212.5t155.5 -146.5t226.5 -53h205v823h-205q-129 -2 -227.5 -55t-154.5 -145.5t-56 -210.5zM123 412q0 104 48.5 183t134 123t200.5 44h137v-74h-143q-135 -2 -219 -77.5t-84 -198.5q0 -125 85 -201t218 -76h143v-74h-137q-115 0 -200.5 44.5 t-134 124t-48.5 182.5zM258 412q0 100 66.5 157.5t181.5 57.5h137v-430h-137q-115 0 -181.5 57t-66.5 158zM643 0v823h61v-823h-61zM778 0v823h490v-61h-428v-74h428v-61h-428v-117h362v-61h-362v-74h362v-62h-362v-116h428v-62h-428v-74h428v-61h-490zM779 0h61v823h-61 v-823z" />
<glyph unicode="&#x178;" horiz-adv-x="1574" d="M23 1647h73l568 -871h-74zM184 1647h74l567 -871h-71zM313 1993q0 88 57.5 143t141.5 55q86 0 143.5 -55t57.5 -143t-57.5 -143.5t-143.5 -55.5q-84 0 -141.5 55.5t-57.5 143.5zM346 1647h74l569 -871h-76zM375 1993q0 -61 40 -99.5t97 -38.5q59 0 99 38t40 100 q0 63 -40 100t-99 37q-57 0 -97 -37t-40 -100zM623 0v700h61v-700h-61zM758 0v700h61v-700h-61zM829 1155l328 492h74l-363 -549zM866 1993q0 88 57.5 143t141.5 55q86 0 143.5 -55t57.5 -143t-57.5 -143.5t-143.5 -55.5q-84 0 -141.5 55.5t-57.5 143.5zM893 0v700h61v-700 h-61zM913 1030l406 617h74l-443 -676zM928 1993q0 -61 40 -99.5t97 -38.5q59 0 99 38t40 100q0 63 -40 100t-99 37q-57 0 -97 -37t-40 -100zM993 903l488 744h73l-522 -801z" />
<glyph unicode="&#x2c6;" horiz-adv-x="610" d="M102 963l164 204h78l-164 -204h-78zM352 1059l39 49l117 -145h-80z" />
<glyph unicode="&#x2dc;" horiz-adv-x="673" d="M102 969q0 59 38 95t100 36q29 0 53 -10.5t57 -34.5q29 -20 46.5 -28.5t37.5 -8.5q35 0 55.5 19.5t20.5 49.5h61q0 -57 -39 -94t-100 -37q-53 0 -110 45q-27 23 -45.5 30t-36.5 7q-35 0 -55.5 -19.5t-20.5 -49.5h-62z" />
<glyph unicode="&#x2000;" horiz-adv-x="1100" />
<glyph unicode="&#x2001;" horiz-adv-x="2200" />
<glyph unicode="&#x2002;" horiz-adv-x="1100" />
<glyph unicode="&#x2003;" horiz-adv-x="2200" />
<glyph unicode="&#x2004;" horiz-adv-x="733" />
<glyph unicode="&#x2005;" horiz-adv-x="550" />
<glyph unicode="&#x2006;" horiz-adv-x="366" />
<glyph unicode="&#x2007;" horiz-adv-x="366" />
<glyph unicode="&#x2008;" horiz-adv-x="275" />
<glyph unicode="&#x2009;" horiz-adv-x="440" />
<glyph unicode="&#x200a;" horiz-adv-x="122" />
<glyph unicode="&#x2010;" horiz-adv-x="667" d="M102 313v62h463v-62h-463zM102 449v61h463v-61h-463z" />
<glyph unicode="&#x2011;" horiz-adv-x="667" d="M102 313v62h463v-62h-463zM102 449v61h463v-61h-463z" />
<glyph unicode="&#x2012;" horiz-adv-x="667" d="M102 313v62h463v-62h-463zM102 449v61h463v-61h-463z" />
<glyph unicode="&#x2013;" horiz-adv-x="1038" d="M102 313v62h834v-62h-834zM102 449v61h834v-61h-834z" />
<glyph unicode="&#x2014;" horiz-adv-x="1130" d="M102 313v62h926v-62h-926zM102 449v61h926v-61h-926z" />
<glyph unicode="&#x2018;" horiz-adv-x="299" d="M51 555v268h62v-268h-62zM186 555v145h62v-145h-62z" />
<glyph unicode="&#x2019;" horiz-adv-x="299" d="M51 678v145h62v-145h-62zM186 555v268h62v-268h-62z" />
<glyph unicode="&#x201a;" horiz-adv-x="299" d="M51 0h62v-145h-62v145zM186 0h62v-268h-62v268z" />
<glyph unicode="&#x201c;" horiz-adv-x="608" d="M51 555v268h62v-268h-62zM186 555v145h62v-145h-62zM360 555v268h62v-268h-62zM496 555v145h61v-145h-61z" />
<glyph unicode="&#x201d;" horiz-adv-x="608" d="M51 678v145h62v-145h-62zM186 555v268h62v-268h-62zM360 678v145h62v-145h-62zM496 555v268h61v-268h-61z" />
<glyph unicode="&#x201e;" horiz-adv-x="608" d="M51 0h62v-145h-62v145zM186 0h62v-268h-62v268zM360 0h62v-145h-62v145zM496 0h61v-268h-61v268z" />
<glyph unicode="&#x2022;" horiz-adv-x="618" d="M102 410q0 86 59.5 146t147.5 60q90 0 148.5 -60t58.5 -146t-58.5 -147.5t-148.5 -61.5q-88 0 -147.5 61.5t-59.5 147.5zM164 412q0 -61 43 -104.5t104 -43.5q59 0 101.5 43t42.5 105q0 59 -42 101t-102 42q-61 0 -104 -42t-43 -101z" />
<glyph unicode="&#x2026;" horiz-adv-x="1081" d="M82 0v168h61v-168h-61zM217 0v168h62v-168h-62zM442 0v168h62v-168h-62zM578 0v168h61v-168h-61zM803 0v168h61v-168h-61zM938 0v168h61v-168h-61z" />
<glyph unicode="&#x202f;" horiz-adv-x="440" />
<glyph unicode="&#x2039;" horiz-adv-x="364" d="M82 342v76l186 -135v-76zM82 512l192 137v-76l-139 -100zM188 424l95 68v-76l-41 -31z" />
<glyph unicode="&#x203a;" horiz-adv-x="364" d="M82 416v76l94 -68l-53 -39zM90 573v76l193 -137l-54 -39zM96 207v76l187 135v-76z" />
<glyph unicode="&#x205f;" horiz-adv-x="550" />
<glyph unicode="&#x20ac;" horiz-adv-x="946" d="M10 311v62h461v-62h-461zM10 446v62h461v-62h-461zM123 569q47 123 159.5 199t256.5 76q106 0 196 -43t150 -115l-47 -37q-51 61 -129 97t-170 36q-119 0 -211 -58t-138 -155h-67zM125 250h65q47 -94 139.5 -151.5t209.5 -57.5q92 0 169.5 36t129.5 97l47 -37 q-59 -72 -149.5 -114.5t-196.5 -42.5q-143 0 -255 75.5t-159 194.5zM274 569q41 66 111 103t154 37q74 0 136 -29t103 -78l-49 -37q-70 82 -190 82q-117 0 -189 -78h-76zM276 250h78q35 -33 82 -53.5t103 -20.5q121 0 190 82l49 -37q-41 -49 -103 -77.5t-136 -28.5 q-84 0 -153 36.5t-110 98.5z" />
<glyph unicode="&#x2122;" horiz-adv-x="944" d="M20 762v61h332v-61h-332zM156 438v277h61v-277h-61zM426 438v385h61v-385h-61zM535 725v98l110 -137l109 137v-98l-111 -135zM801 438v385h61v-385h-61z" />
<glyph unicode="&#x25fc;" horiz-adv-x="819" d="M0 0v819h819v-819h-819z" />
</font>
</defs>
</svg>
